<?xml version="1.0" encoding="utf-8"?>
<!-- Generator: Adobe Illustrator 27.0.0, SVG Export Plug-In . SVG Version: 6.00 Build 0)  -->
<svg version="1.1" id="Capa_1" xmlns="http://www.w3.org/2000/svg" xmlns:xlink="http://www.w3.org/1999/xlink" x="0px" y="0px"
	 viewBox="0 0 200 200" style="enable-background:new 0 0 200 200;" xml:space="preserve">
<style type="text/css">
	.st0{fill:#13314E;}
	.st1{fill:#FFFFFF;}
	.st2{fill-rule:evenodd;clip-rule:evenodd;fill:#13314E;}
	.st3{fill-rule:evenodd;clip-rule:evenodd;fill:#FFFFFF;}
</style>
<circle class="st0" cx="100" cy="100" r="95"/>
<g>
	<g>
		<path class="st0" d="M125.8,80.5h-21.3c-0.1,0-0.2,0-0.3,0.1c-1.5-1.7-3.7-2.7-6-2.7H77.8c-4.4,0-8,3.6-8,8v37.3c0,4.4,3.6,8,8,8
			h48c4.4,0,8-3.6,8-8V88.5C133.8,84.1,130.3,80.5,125.8,80.5z"/>
		<g id="_11._Folder">
			<path class="st1" d="M125.8,80.5h-21.3c-0.1,0-0.2,0-0.3,0.1c-1.5-1.7-3.7-2.7-6-2.7H77.8c-4.4,0-8,3.6-8,8v37.3c0,4.4,3.6,8,8,8
				h48c4.4,0,8-3.6,8-8V88.5C133.8,84.1,130.3,80.5,125.8,80.5z M128.5,88.5v2.7H109l-2.1-5.3h19C127.3,85.9,128.5,87.1,128.5,88.5z
				 M128.5,123.2c0,1.5-1.2,2.7-2.7,2.7h-48c-1.5,0-2.7-1.2-2.7-2.7V85.9c0-1.5,1.2-2.7,2.7-2.7h20.4c1.1,0,2.1,0.7,2.5,1.7l4,10
				c0.4,1,1.4,1.7,2.5,1.7h21.3V123.2z"/>
		</g>
	</g>
	<g>
		<g>
			<g>
				<path class="st2" d="M77.8,83.4c-5.3,0-10.2-3.4-12.1-8.4c-2.5-6.7,0.8-14.2,7.5-16.7c1.5-0.6,3-0.8,4.6-0.8
					c5.3,0,10.2,3.4,12.1,8.4c1.2,3.2,1.1,6.8-0.3,9.9s-4,5.6-7.2,6.8C80.9,83.1,79.4,83.4,77.8,83.4z"/>
				<path class="st0" d="M77.8,60c4.2,0,8.2,2.6,9.8,6.7c2.1,5.4-0.7,11.4-6.1,13.5c-1.2,0.5-2.5,0.7-3.7,0.7
					c-4.2,0-8.2-2.6-9.8-6.7c-2.1-5.4,0.7-11.4,6.1-13.5C75.3,60.2,76.6,60,77.8,60 M77.8,55L77.8,55c-1.9,0-3.7,0.3-5.5,1
					c-3.9,1.5-6.9,4.3-8.6,8.1c-1.7,3.8-1.8,8-0.3,11.8c2.3,6,8.1,10,14.4,10c1.9,0,3.7-0.3,5.5-1c8-3,12-12,9-19.9
					C90,59,84.2,55,77.8,55L77.8,55z"/>
			</g>
			<g>
				<g transform="matrix(0.606092,-0.606092,0.707107,0.707107,-11.9345,25.6432)">
					<g>
						<g>
							<path class="st3" d="M37,104.3c-0.4-0.4-0.8-0.8-1-1.3c-0.4-0.9-0.4-1.9,0.1-2.8c0.5-0.9,1.3-1.5,2.4-1.9
								c0.9-0.3,1.7-0.9,2.1-1.7c0.4-0.8,0.4-1.7,0.1-2.5c-0.9-1.9,0.3-4.1,2.5-4.8c1.6-0.5,3.3-0.2,4.5,0.8c0.4,0.4,0.8,0.8,1,1.3
								c2.4,5.5-0.8,11.6-7.1,13.7C39.9,105.6,38.2,105.3,37,104.3C37,104.3,37,104.3,37,104.3z"/>
							<path class="st0" d="M45.6,91.9c0.1,0.1,0.2,0.3,0.3,0.4c1.9,4.2-0.6,8.9-5.4,10.4c-0.5,0.2-1,0.1-1.4-0.2
								c-0.1-0.1-0.2-0.3-0.3-0.4c-0.3-0.6,0.1-1.2,0.8-1.5c3.4-1.1,5.2-4.4,3.9-7.4c-0.3-0.6,0.1-1.3,0.8-1.6
								C44.7,91.5,45.2,91.6,45.6,91.9 M49.7,88.4c-2-1.7-4.9-2.2-7.6-1.4c-3.7,1.2-5.6,4.8-4.2,8c0.1,0.2,0.1,0.4,0,0.6
								c-0.1,0.1-0.2,0.3-0.5,0.4c-3.7,1.2-5.6,4.7-4.1,7.9c0.4,0.8,0.9,1.6,1.6,2.2c2,1.7,4.9,2.2,7.6,1.4c3.8-1.2,6.8-3.7,8.5-6.8
								c1.7-3.2,1.8-6.8,0.3-10C51,89.7,50.4,89,49.7,88.4L49.7,88.4z"/>
						</g>
					</g>
				</g>
				<g>
					<g>
						<path class="st3" d="M65.9,103.4c-0.8,0-1.7-0.2-2.5-0.5c-1.5-0.7-2.6-1.8-3.1-3.3s-0.5-3.1,0.2-4.6l6.9-15.3
							c-3.5-4.1-4.4-9.9-2.2-14.9c2.3-5,7.3-8.3,12.8-8.3c2,0,3.9,0.4,5.8,1.2c3.4,1.5,6,4.3,7.4,7.8c1.3,3.5,1.2,7.3-0.3,10.7
							c-2.2,5-7.1,8.2-12.5,8.3l-6.9,15.3c-0.7,1.5-1.8,2.6-3.3,3.1C67.3,103.3,66.6,103.4,65.9,103.4
							C65.9,103.4,65.9,103.4,65.9,103.4z M77.8,63.9c-2.6,0-5,1.6-6,4c-1.5,3.4,0,7.4,3.3,8.9c0.9,0.4,1.8,0.6,2.7,0.6
							c2.6,0,5-1.5,6.1-3.9c1.5-3.4,0-7.3-3.4-8.8C79.7,64.1,78.8,63.9,77.8,63.9z"/>
						<path class="st0" d="M77.9,59c1.6,0,3.2,0.3,4.7,1c5.8,2.6,8.4,9.4,5.8,15.2c-1.9,4.3-6.1,6.8-10.5,6.8c-0.4,0-0.9,0-1.4-0.1
							L69,98.9c-0.4,0.9-1,1.5-1.9,1.8c-0.4,0.1-0.8,0.2-1.2,0.2c-0.5,0-1-0.1-1.5-0.3c-0.9-0.4-1.5-1-1.8-1.9
							c-0.3-0.9-0.3-1.8,0.1-2.7l7.6-16.8c-3.7-3.3-5-8.7-2.9-13.4C69.3,61.5,73.5,59,77.9,59 M77.9,79.8c3.5,0,6.9-2,8.4-5.4
							c2.1-4.6,0-10.1-4.6-12.1c-1.2-0.6-2.6-0.9-3.8-0.9c-3.5,0-6.8,2-8.3,5.5c-2.1,4.6,0,10.1,4.6,12.1
							C75.3,79.5,76.6,79.8,77.9,79.8 M77.9,54c-6.5,0-12.4,3.8-15,9.8c-2.4,5.4-1.8,11.6,1.6,16.3L58.1,94c-0.9,2.1-1,4.4-0.2,6.5
							c0.8,2.1,2.4,3.8,4.5,4.7c1.1,0.5,2.3,0.8,3.5,0.8c1,0,2-0.2,3-0.5c2.1-0.8,3.8-2.4,4.7-4.5l6.3-14c5.7-0.7,10.8-4.3,13.2-9.6
							c3.7-8.3,0-18.1-8.3-21.8C82.5,54.5,80.2,54,77.9,54L77.9,54z M77.9,74.8c-0.6,0-1.2-0.1-1.7-0.4c-2.1-0.9-3-3.4-2.1-5.5l0,0
							l0,0c0.6-1.5,2.1-2.5,3.7-2.5c0.6,0,1.2,0.1,1.7,0.4l0,0l0,0c2.1,0.9,3,3.4,2.1,5.5C81,73.8,79.5,74.8,77.9,74.8L77.9,74.8z"
							/>
					</g>
				</g>
			</g>
		</g>
	</g>
	<g>
		<g>
			<circle class="st2" cx="77.8" cy="70.4" r="10.4"/>
			<g>
				<g transform="matrix(0.606092,-0.606092,0.707107,0.707107,-11.9345,25.6432)">
					<g>
						<path class="st3" d="M43.4,93.2c1.3,3-0.4,6.3-3.9,7.4c-0.7,0.2-1,0.8-0.8,1.5c0.3,0.6,1,0.9,1.7,0.7
							c4.8-1.6,7.3-6.2,5.4-10.4c-0.3-0.6-1-0.9-1.7-0.7C43.5,91.9,43.1,92.6,43.4,93.2z"/>
					</g>
				</g>
				<g>
					<path class="st3" d="M70.3,79.2L62.7,96c-0.4,0.9-0.4,1.8-0.1,2.7c0.3,0.9,1,1.5,1.8,1.9s1.8,0.4,2.7,0.1
						c0.9-0.3,1.5-1,1.9-1.8L76.6,82c4.9,0.6,9.7-2,11.8-6.7c2.6-5.8,0-12.6-5.8-15.2c-5.8-2.6-12.6,0-15.2,5.8
						C65.3,70.6,66.6,75.9,70.3,79.2z M81.7,62.2c4.6,2.1,6.7,7.5,4.6,12.1C84.2,79,78.7,81,74.1,79s-6.7-7.5-4.6-12.1
						C71.5,62.1,77,60.1,81.7,62.2z"/>
				</g>
			</g>
		</g>
	</g>
</g>
</svg>
