<?xml version="1.0" encoding="utf-8"?>
<!-- Generator: Adobe Illustrator 27.0.0, SVG Export Plug-In . SVG Version: 6.00 Build 0)  -->
<svg version="1.1" id="Capa_1" xmlns="http://www.w3.org/2000/svg" xmlns:xlink="http://www.w3.org/1999/xlink" x="0px" y="0px"
	 viewBox="0 0 200 200" style="enable-background:new 0 0 200 200;" xml:space="preserve">
<style type="text/css">
	.st0{fill:#13314E;}
	.st1{fill:#FFFFFF;}
</style>
<circle class="st0" cx="100" cy="100" r="95"/>
<g>
	<path class="st1" d="M103.2,91.7c3-1,6.4,0.7,7.4,3.8c1,3-0.7,6.4-3.8,7.4l-1.8-5.6L103.2,91.7C103.1,91.8,103.1,91.8,103.2,91.7
		 M101.5,86.6l-0.2,0.1l-5,1.7l1.7,5.1l1.9,5.5l1.8,5.5l1.6,5.1l5.1-1.6c5.9-1.9,9.1-8.2,7.3-14.1C113.7,87.9,107.4,84.7,101.5,86.6
		L101.5,86.6z"/>
	<path class="st1" d="M64.8,123.1l6.5,10.4c0.2,0.4,0.4,0.6,0.7,0.9c2,2.1,5.2,2.1,7.3,0.1l3.9-3.8c1.4-1.3,1.9-3.4,1.3-5.3l-2.2-7
		c7.6-0.8,15.3,0.3,22.4,3.2c1.1,0.4,2.3,0.5,3.5,0.2c0.7-0.3,1.3-0.6,2-1.2c1.4-1.3,2.1-3.4,1.4-5.4L99,77.3
		c-0.4-1.2-1.2-2.2-2.2-2.8c-2.4-1.5-5.6-0.8-7.1,1.6C81.2,89.8,68.9,94,68.8,94L59,97.2c-7,2.2-10.8,9.8-8.6,16.9
		C52.4,120.1,58.4,124,64.8,123.1z M80.2,112.6l-4.8-14.7c7.4-3.9,13.7-9.6,18.4-16.6l10.9,34C96.9,112.4,88.4,111.4,80.2,112.6z
		 M71,121.4l5-1.6l2.2,7l-2.4,2.4L71,121.4z M56.3,112.1c-1.3-3.8,0.9-7.8,4.7-9.1l8.8-2.9l4.4,13.7l-8.8,2.9
		C61.6,117.9,57.5,115.9,56.3,112.1z"/>
	<g>
		<path class="st1" d="M146.8,86.6l-15,4.8c-1.4,0.4-3-0.4-3.4-1.7c-0.4-1.4,0.4-3,1.7-3.4l15-4.8c1.4-0.4,3,0.4,3.4,1.7
			C149,84.5,148.2,86.1,146.8,86.6z"/>
	</g>
	<g>
		<path class="st1" d="M119.3,81.8c-0.8,0.3-1.8,0.1-2.5-0.4c-1.2-1-1.3-2.6-0.4-3.8l9.9-12.2c1-1.2,2.6-1.3,3.8-0.4
			c1.2,1,1.3,2.6,0.4,3.8l-9.9,12.1C120.2,81.4,119.7,81.6,119.3,81.8z"/>
	</g>
	<g>
		<path class="st1" d="M141.6,112.1c-0.5,0.2-1.1,0.2-1.6,0l-15.1-4.7c-1.4-0.4-2.2-2-1.8-3.3c0.4-1.4,2-2.2,3.3-1.8l15.1,4.7
			c1.4,0.4,2.2,2,1.8,3.3C143.1,111.2,142.4,111.9,141.6,112.1z"/>
	</g>
</g>
</svg>
