<?xml version="1.0" encoding="utf-8"?>
<!-- Generator: Adobe Illustrator 27.0.0, SVG Export Plug-In . SVG Version: 6.00 Build 0)  -->
<svg version="1.1" id="Capa_1" xmlns="http://www.w3.org/2000/svg" xmlns:xlink="http://www.w3.org/1999/xlink" x="0px" y="0px"
	 viewBox="0 0 200 200" style="enable-background:new 0 0 200 200;" xml:space="preserve">
<style type="text/css">
	.st0{fill:#13314E;}
	.st1{fill:#FFFFFF;}
</style>
<circle class="st0" cx="100" cy="100" r="95"/>
<g>
	<g>
		<path class="st1" d="M127.6,94.3h-4.3c-0.6,0-1,0.5-1,1c0,0.6,0.5,1,1,1h2.7v1.5c0,0.6,0.5,1,1,1s1-0.5,1-1v-1.6
			c1.3-0.2,2.5-1.3,2.8-2.8c0.1-0.4,0-0.8-0.3-1c-0.3-1.5-1.5-2.5-3.3-2.5h-0.9h-1.1c-0.3,0-0.7-0.4-1-0.9v-0.4
			c0-0.6,0.4-1.2,1.2-1.2h4c0.6,0,1-0.5,1-1s-0.5-1-1-1h-1.5v-1.2c0-0.6-0.5-1-1-1s-1,0.5-1,1v1.2h-0.4c-2.1,0-3.3,1.7-3.3,3.3v0.6
			c0,0,0,0,0,0.1c0,0,0,0.1,0,0.1c0,0,0,0.1,0,0.1c0,0,0,0,0,0.1c0,0,0,0,0,0c0,0,0,0,0,0.1c0.4,1.1,1.6,2.3,3,2.3h1.1h0.9
			c0.8,0,1.2,0.4,1.2,1.2c0,0.1,0,0.2,0.1,0.3C128.4,94,128.1,94.3,127.6,94.3z"/>
		<path class="st1" d="M137.9,76.3H63.6c-5.1,0-9.2,4.1-9.2,9.2v39.1c0,5.1,4.1,9.2,9.2,9.2h74.3c5.1,0,9.2-4.1,9.2-9.2V85.5
			C147.1,80.5,143,76.3,137.9,76.3z M143.6,124.7c0,3.1-2.6,5.7-5.7,5.7H63.6c-3.1,0-5.7-2.6-5.7-5.7V85.5c0-3.1,2.6-5.7,5.7-5.7
			h74.3c3.1,0,5.7,2.6,5.7,5.7V124.7z"/>
		<path class="st1" d="M136.7,102H65.1c-1.9,0-3.5,1.6-3.5,3.5v8.6c0,1.9,1.6,3.5,3.5,3.5h71.7c1.9,0,3.5-1.6,3.5-3.5v-8.6
			C140.2,103.6,138.7,102,136.7,102z M136.7,114.1H65.1v-8.6h71.7V114.1z"/>
		<path class="st1" d="M136.5,121.5h-20c-1,0-1.7,0.8-1.7,1.7s0.8,1.7,1.7,1.7h20c1,0,1.7-0.8,1.7-1.7S137.4,121.5,136.5,121.5z"/>
		<path class="st1" d="M65.1,88.7h24c1,0,1.7-0.8,1.7-1.7c0-1-0.8-1.7-1.7-1.7h-24c-1,0-1.7,0.8-1.7,1.7
			C63.3,87.9,64.1,88.7,65.1,88.7z"/>
		<path class="st1" d="M65.1,97.8h38.6c1,0,1.7-0.8,1.7-1.7c0-1-0.8-1.7-1.7-1.7H65.1c-1,0-1.7,0.8-1.7,1.7
			C63.3,97.1,64.1,97.8,65.1,97.8z"/>
	</g>
	<g>
		<g>
			<path class="st0" d="M42.6,115.6c-1.1,0-2.3-0.4-3.2-1.1c-1.6-1.2-2.3-3.3-1.9-5.3l2.9-11.7c0.2-0.7,0.5-1.4,0.9-1.9l27.6-35.8
				c1.3-1.7,3.2-2.6,5.3-2.6c0.2,0,0.4,0,0.6,0l1.7-2.2c1.2-1.5,2.9-2.3,4.9-2.3c1.6,0,3.1,0.6,4.4,1.6l0.5,0.4
				c3.1,2.4,3.8,6.4,1.6,9.2c-0.1,0.1-0.1,0.2-0.2,0.2l-1.8,2c0.6,2,0.2,4.2-1.1,6l-1.3,1.7c0.6,0.8,1,1.8,1.1,2.8
				c0.3,1.7-0.2,3.5-1.2,4.9l-4.5,5.9c-0.7,0.9-1.8,1.5-3,1.5l0,0c-0.8,0-1.7-0.3-2.3-0.8c-0.2-0.2-0.4-0.3-0.6-0.5l-15.7,20.4
				c-0.4,0.6-1,1-1.6,1.4L45,115C44.3,115.4,43.4,115.6,42.6,115.6z"/>
			<path class="st0" d="M81.4,55.1c1,0,2,0.3,2.9,1l0.5,0.4c2,1.5,2.5,4,1.2,5.7c0,0-0.1,0.1-0.1,0.1l-2.7,3.2c0,0-0.1,0-0.1,0.1
				c1,1.5,1,3.4-0.2,4.9L80.2,74l0.4,0.3c1.8,1.4,2.2,4,0.9,5.6L77,85.8c-0.3,0.3-0.7,0.5-1.1,0.5c-0.3,0-0.6-0.1-0.8-0.3
				c-0.6-0.4-0.7-1.3-0.2-1.9l4.5-5.9c0.4-0.5,0.3-1.4-0.4-1.9l-0.4-0.3l-23.3,30.2c-0.2,0.3-0.5,0.5-0.8,0.7l-10.6,5.8
				c-0.4,0.2-0.8,0.3-1.3,0.3c-0.6,0-1.2-0.2-1.6-0.6c-0.8-0.6-1.2-1.7-1-2.7l2.9-11.7c0.1-0.4,0.3-0.7,0.5-1l27.6-35.8
				c0.8-1.1,2-1.6,3.3-1.6c0.5,0,1.1,0.1,1.6,0.3c0-0.1,0.1-0.1,0.1-0.2l2.6-3.3C79.2,55.6,80.2,55.1,81.4,55.1 M81.4,50.1
				c-2.7,0-5.2,1.2-6.9,3.3l-0.9,1.2c-2.6,0.2-5,1.5-6.6,3.6L39.4,94c-0.7,0.9-1.1,1.8-1.4,2.9l-2.9,11.7c-0.7,2.9,0.4,6,2.8,7.9
				c1.3,1,3,1.6,4.7,1.6c1.3,0,2.5-0.3,3.7-0.9l10.6-5.8c0.9-0.5,1.8-1.2,2.4-2.1l14.3-18.5c0.7,0.3,1.5,0.5,2.3,0.5
				c2,0,3.8-0.9,5-2.5l4.5-5.9c2-2.6,2.3-6.1,1.1-9l0.3-0.4c1.5-2,2.2-4.4,1.8-6.8l1-1.1c0.1-0.1,0.2-0.2,0.3-0.3
				c3-3.9,2.1-9.5-2.1-12.7l-0.5-0.4C85.6,50.9,83.5,50.1,81.4,50.1L81.4,50.1z"/>
		</g>
		<path class="st1" d="M84.8,56.6l-0.5-0.4c-2-1.5-4.5-1.4-5.8,0.3l-2.6,3.3c0,0-0.1,0.1-0.1,0.2c-1.7-0.7-3.7-0.2-4.9,1.3
			L43.3,97.1c-0.2,0.3-0.4,0.6-0.5,1L40,109.8c-0.3,1,0.1,2.1,1,2.7c0.8,0.6,2,0.7,2.9,0.2l10.6-5.8c0.3-0.2,0.6-0.4,0.8-0.7
			l23.3-30.2l0.4,0.3c0.7,0.5,0.8,1.4,0.4,1.9l-4.5,5.9c-0.4,0.6-0.3,1.4,0.2,1.9c0.6,0.4,1.4,0.3,1.9-0.2l4.5-5.9
			c1.3-1.7,0.9-4.3-0.9-5.6L80.2,74l2.7-3.4c1.1-1.5,1.2-3.4,0.2-4.9c0,0,0.1,0,0.1-0.1l2.7-3.2c0,0,0.1-0.1,0.1-0.1
			C87.3,60.6,86.8,58.1,84.8,56.6z M46,98l22.8-29.5c0.1,0.1,0.1,0.2,0.2,0.2l7.5,5.8L53.7,104L46,98z M45.3,99.4l7.3,5.6l-9.9,5.4
			L45.3,99.4z M80.5,66.8c0.7,0.5,0.8,1.4,0.3,2.1l-2.7,3.4l-7.5-5.8c-0.1-0.1-0.2-0.1-0.3-0.2l2.7-3.5c0.5-0.7,1.4-0.8,2.1-0.3
			L80.5,66.8z M83.2,58.7c0.7,0.5,1.1,1.4,0.7,2l-2.7,3.2L78,61.5l2.6-3.3c0.4-0.5,1.2-0.5,2.1,0.1L83.2,58.7z"/>
	</g>
</g>
</svg>
