<?xml version="1.0" encoding="utf-8"?>
<!-- Generator: Adobe Illustrator 27.0.0, SVG Export Plug-In . SVG Version: 6.00 Build 0)  -->
<svg version="1.1" id="Capa_1" xmlns="http://www.w3.org/2000/svg" xmlns:xlink="http://www.w3.org/1999/xlink" x="0px" y="0px"
	 viewBox="0 0 200 200" style="enable-background:new 0 0 200 200;" xml:space="preserve">
<style type="text/css">
	.st0{fill:#13314E;}
	.st1{fill:#FFFFFF;}
</style>
<circle class="st0" cx="100" cy="100" r="95"/>
<g>
	<path class="st1" d="M127.1,68.5c4.6,0,8.4,3.8,8.4,8.4v20.6c-1.7-1.1-3.6-2-5.6-2.4V76.9c0-1.5-1.3-2.8-2.8-2.8H69.2
		c-1.5,0-2.8,1.3-2.8,2.8v43c0,1.5,1.3,2.8,2.8,2.8h43.9v5.6H69.2c-4.6,0-8.4-3.8-8.4-8.4v-43c0-4.6,3.8-8.4,8.4-8.4H127.1z
		 M102.8,102.1h9.4c-1.1,1.7-2,3.6-2.4,5.6h-6.9c-1.5,0-2.8-1.3-2.8-2.8c0-1.4,1.1-2.6,2.4-2.8L102.8,102.1z M102.8,89.1h16.8
		c1.5,0,2.8,1.3,2.8,2.8c0,1.4-1.1,2.6-2.4,2.8l-0.4,0h-16.8c-1.5,0-2.8-1.3-2.8-2.8c0-1.4,1.1-2.6,2.4-2.8L102.8,89.1z
		 M139.2,111.5c0,7.2-5.9,13.1-13.1,13.1c-7.2,0-13.1-5.9-13.1-13.1c0-7.2,5.9-13.1,13.1-13.1C133.4,98.4,139.2,104.3,139.2,111.5z
		 M116.8,125.5v11.4c0,2.4,2.9,3.5,4.5,1.9l4.8-4.8l4.8,4.8c1.7,1.7,4.5,0.5,4.5-1.9v-11.4c-2.7,1.8-5.9,2.8-9.3,2.8
		C122.7,128.3,119.5,127.2,116.8,125.5z M72.1,89.3l0.3,0.1v3c-0.4,0.2-0.6,0.6-0.6,1c0,0.4,0.2,0.8,0.6,1l-0.8,3.2
		c-0.1,0.4,0.1,0.7,0.4,0.7h2.1c0.3,0,0.5-0.4,0.4-0.7l-0.8-3.2c0.3-0.2,0.6-0.6,0.6-1c0-0.4-0.3-0.8-0.6-1v-2.7l2.7,0.6l0,3.1
		c0,3.6,2.9,6.6,6.6,6.6c3.6,0,6.5-2.9,6.5-6.6l0-3.1l4.2-1c0.9-0.2,0.9-1.4,0-1.6L84,85.4c-0.7-0.2-1.4-0.2-2,0l-9.8,2.4
		C71.2,88,71.2,89.1,72.1,89.3z M88.3,101.3l-5.3,5.3l-5.3-5.3c-3.6,1.1-6.2,4.5-6.2,8.5c0,1,0.8,1.8,1.8,1.8h19.5
		c1,0,1.8-0.8,1.8-1.8C94.5,105.8,91.8,102.5,88.3,101.3z"/>
</g>
</svg>
