<?xml version="1.0" encoding="utf-8"?>
<!-- Generator: Adobe Illustrator 27.0.0, SVG Export Plug-In . SVG Version: 6.00 Build 0)  -->
<svg version="1.1" id="Capa_1" xmlns="http://www.w3.org/2000/svg" xmlns:xlink="http://www.w3.org/1999/xlink" x="0px" y="0px"
	 viewBox="0 0 200 200" style="enable-background:new 0 0 200 200;" xml:space="preserve">
<style type="text/css">
	.st0{fill:#13314E;}
	.st1{fill:#FFFFFF;}
</style>
<circle class="st0" cx="100" cy="100" r="95"/>
<g>
	<g>
		<path class="st1" d="M-143.6,96.6c0.5-2.6,0.9-5.2,1.6-7.8c5-18,22.5-30,41.1-28.3c18.8,1.7,33.8,16.5,35.6,35.3
			c0.8,8.1-0.8,15.6-4.7,22.7c-1.5,2.8-4,3.6-6.9,2c-1.9-1-3.8-2.1-5.6-3.2c-1.5-0.9-1.6-1.6-0.6-3.3c1-1.7,1.6-2,3.2-1.2
			c0.7,0.3,1.3,0.7,2.2,1.2c4.6-8.9,4.8-17.9,0.9-27.2c-2.1,1.4-4.2,2.5-5.5-0.8c-1-2.6,1.5-2.7,2.5-3.8c-2.7-6-15-13.1-21.8-12.5
			c0,1.1,0,2.3,0,3.5c-0.1,1.6-0.6,2-2.7,2c-2,0-2.4-0.4-2.5-2c0-1.1,0-2.1-0.1-3.2c0-0.1-0.1-0.2-0.2-0.5
			c-9.1,0.9-16.3,5.2-21.9,12.7c2.1,1.2,4.3,2.3,2,5.2c-1.8,2.2-3,0-4.5-0.3c-4,6.5-4.2,19.1,0.8,26.9c0.6-0.4,1.3-0.7,2-1.1
			c1.5-0.8,2.2-0.5,3.2,1.3c1,1.7,0.8,2.4-0.7,3.3c-1.8,1.1-3.6,2.1-5.5,3.1c-2.8,1.5-5.3,0.8-6.9-2c-2.6-4.6-4.2-9.5-4.7-14.8
			c0-0.4-0.2-0.9-0.3-1.3C-143.6,100.4-143.6,98.5-143.6,96.6z"/>
		<path class="st1" d="M-104.3,105.6c-2.6-0.2-4.8-1.7-5.7-4.2c-0.8-2.4,0-5.1,2.1-6.7c2.1-1.6,4.8-1.6,7-0.1c0.9,0.5,1.9,0.9,2.9,1
			c6,0.7,12.1,1.2,18.1,1.8c1.3,0.1,2.4,0.5,2.5,2.1c0.1,1.3-0.7,2.1-2.5,2.3c-5.4,0.5-10.8,1-16.2,1.4c-2,0.2-3.9,0.1-5.6,1.5
			C-102.3,105.3-103.4,105.4-104.3,105.6z"/>
		<path class="st1" d="M-104.3,117.7c2.9,0,5.7,0,8.6,0c2.3,0,3.3,1.1,3.4,3.4c0.1,4.3-0.1,5.7-5.4,5.6c-5-0.1-9.9,0-14.9,0
			c-2.7,0-3.7-1-3.7-3.7c-0.1-4.7,0.5-5.2,5.1-5.2C-108.9,117.7-106.6,117.7-104.3,117.7z"/>
	</g>
</g>
<g>
	<g id="_x39_-Phone_Book">
		<g>
			<path class="st1" d="M62.9,90h10.5c0.9,0,1.7-0.7,1.7-1.7v-6.7c0-0.9-0.7-1.7-1.7-1.7H62.9c-0.9,0-1.7,0.7-1.7,1.7v6.7
				C61.3,89.3,62,90,62.9,90z"/>
			<path class="st1" d="M62.9,105h10.5c0.9,0,1.7-0.7,1.7-1.7v-6.7c0-0.9-0.7-1.7-1.7-1.7H62.9c-0.9,0-1.7,0.7-1.7,1.7v6.7
				C61.3,104.2,62,105,62.9,105z"/>
			<path class="st1" d="M75.2,118.3v-6.7c0-0.9-0.7-1.7-1.7-1.7H62.9c-0.9,0-1.7,0.7-1.7,1.7v6.7c0,0.9,0.7,1.7,1.7,1.7h10.5
				C74.4,120,75.2,119.2,75.2,118.3z"/>
			<path class="st1" d="M127.8,61.7h-52c-4.6,0-8.3,3.7-8.3,8.3v6.7h6c2.8,0,5,2.2,5,5v6.7c0,1.7-0.9,3.3-2.2,4.2
				c1.3,0.9,2.2,2.4,2.2,4.2v6.7c0,1.7-0.9,3.3-2.2,4.2c1.3,0.9,2.2,2.4,2.2,4.2v6.7c0,2.8-2.2,5-5,5h-6v6.7c0,4.6,3.7,8.3,8.3,8.3
				h52c4.6,0,8.3-3.7,8.3-8.3V70C136.1,65.4,132.4,61.7,127.8,61.7z"/>
		</g>
	</g>
	<g>
		<path class="st0" d="M95.9,108.7l-0.4-1.3h-6.1l-0.4,1.3c-0.3,1-1.2,1.6-2.3,1.6h0c-1.7,0-2.8-1.6-2.2-3.2l5.4-15
			c0.4-1.1,1.4-1.8,2.5-1.8l0,0c1.1,0,2.1,0.7,2.5,1.8l5.5,15c0.6,1.5-0.6,3.1-2.2,3.1h-0.1C97.1,110.4,96.2,109.7,95.9,108.7z
			 M92,99.4l-1,3c-0.2,0.4,0.2,0.9,0.7,0.9h1.7c0.4,0,0.7-0.4,0.6-0.8l-1-3.1C92.8,99,92.2,99,92,99.4z"/>
		<path class="st0" d="M102.9,102.1L102.9,102.1c0-1.2,1-2.2,2.2-2.2h4.9c1.2,0,2.2,1,2.2,2.2v0c0,1.2-1,2.2-2.2,2.2h-4.9
			C103.9,104.3,102.9,103.3,102.9,102.1z"/>
		<path class="st0" d="M114.3,107.4L114.3,107.4c0-0.6,0.2-1.1,0.5-1.6l7.2-11h-5.1c-1.2,0-2.2-1-2.2-2.2v0c0-1.2,1-2.2,2.2-2.2h8.1
			c1.6,0,2.9,1.3,2.9,2.9l0,0c0,0.6-0.2,1.1-0.5,1.6l-7.2,11h5.5c1.2,0,2.2,1,2.2,2.2l0,0c0,1.2-1,2.2-2.2,2.2h-8.4
			C115.6,110.4,114.3,109,114.3,107.4z"/>
	</g>
</g>
</svg>
