<?xml version="1.0" encoding="utf-8"?>
<!-- Generator: Adobe Illustrator 27.0.0, SVG Export Plug-In . SVG Version: 6.00 Build 0)  -->
<svg version="1.1" id="Capa_1" xmlns="http://www.w3.org/2000/svg" xmlns:xlink="http://www.w3.org/1999/xlink" x="0px" y="0px"
	 viewBox="0 0 100 100" style="enable-background:new 0 0 100 100;" xml:space="preserve">
<style type="text/css">
	.st0{fill:#FFFFFF;}
</style>
<g>
	<path class="st0" d="M18.7,23.8c-5.2,1.3-8.5,3.6-10.3,7.5c-1.4,3.2-1.7,6-1.7,19.8c0,17.6,0.6,20.3,5.6,23.9
		c2.2,1.7,3.8,1.9,13.4,1.9c6,0,11.9-0.3,13.4-0.7l2.4-0.6V64V52.4h-3.1h-3.1v9.3v9.2l-5.8,0.6c-6.9,0.7-12.3-0.5-14.2-3.3
		c-2-2.8-2-32.2,0-35.1c2.2-3.1,6.8-4.1,16.1-3.5l8.3,0.6l0.6-2.3c0.3-1.2,0.4-2.5,0.1-2.8c-0.7-0.7-11.3-2.1-15.3-2
		C22.9,23.2,20.2,23.5,18.7,23.8z"/>
	<g>
		<path class="st0" d="M55.1,28.6V34h19.1h19.1v-5.3v-5.3H74.2H55.1V28.6z"/>
		<path class="st0" d="M55.1,60.7v16h5.8h5.8V66V55.3h12.5h12.5V50v-5.3H73.3H55.1V60.7z"/>
	</g>
</g>
</svg>
