<?xml version="1.0" encoding="utf-8"?>
<!-- Generator: Adobe Illustrator 27.0.0, SVG Export Plug-In . SVG Version: 6.00 Build 0)  -->
<svg version="1.1" id="Capa_1" xmlns="http://www.w3.org/2000/svg" xmlns:xlink="http://www.w3.org/1999/xlink" x="0px" y="0px"
	 viewBox="0 0 200 200" style="enable-background:new 0 0 200 200;" xml:space="preserve">
<style type="text/css">
	.st0{fill:#13314E;}
	.st1{fill-rule:evenodd;clip-rule:evenodd;fill:#FFFFFF;}
</style>
<circle class="st0" cx="100" cy="100" r="95"/>
<g>
	<g>
		<g>
			<path class="st1" d="M128.8,72.2H71.2c-5.3,0-9.6,4.3-9.6,9.6v36.3c0,5.3,4.3,9.6,9.6,9.6h57.7c5.3,0,9.6-4.3,9.6-9.6V81.8
				C138.4,76.5,134.1,72.2,128.8,72.2z M133.9,119.2c0,1.9-1.5,3.4-3.4,3.4H69.5c-1.9,0-3.4-1.5-3.4-3.4V80.8c0-1.9,1.5-3.4,3.4-3.4
				h27.2v3.4c0,1.9,1.5,3.4,3.4,3.4c1.9,0,3.4-1.5,3.4-3.4v-3.4h27.2c1.9,0,3.4,1.5,3.4,3.4V119.2z M124,92.5h-16
				c-0.9,0-1.6,0.7-1.6,1.6s0.7,1.6,1.6,1.6h16c0.9,0,1.6-0.7,1.6-1.6S124.9,92.5,124,92.5z M124,102.1h-16c-0.9,0-1.6,0.7-1.6,1.6
				s0.7,1.6,1.6,1.6h16c0.9,0,1.6-0.7,1.6-1.6S124.9,102.1,124,102.1z M117.6,111.7H108c-0.9,0-1.6,0.7-1.6,1.6
				c0,0.9,0.7,1.6,1.6,1.6h9.6c0.9,0,1.6-0.7,1.6-1.6C119.2,112.5,118.5,111.7,117.6,111.7z M97.2,103.7c-0.3-0.4-0.8-0.6-1.2-0.9
				c-0.1-0.1-0.1-0.2-0.1-0.3c0,0,0,0,0,0c0.2-0.2,0.3-0.4,0.3-0.7c0-0.5-0.4-0.8-0.9-0.8h-0.9c0,0-0.1,0-0.1,0c0,0-0.1,0-0.1,0
				c-0.5-1.1-1.2-2.6-2.7-3.4c-2.2-1.1-6.2-1.1-7-1.1s-4.8,0.1-7,1.1c-1.5,0.7-2.2,2.2-2.7,3.4l0,0c0,0-0.1,0-0.1,0c0,0-0.1,0-0.1,0
				h-0.9c-0.5,0-0.9,0.4-0.9,0.8c0,0.3,0.1,0.5,0.3,0.7c0.1,0.1,0.1,0.2,0,0.3c0,0,0,0,0,0c-0.5,0.3-1,0.5-1.2,0.9
				c-0.1,0.2-0.5,0.6-0.7,2.9c-0.1,1.3-0.1,2.6,0,3.5c0.2,1.8,0.5,2.9,0.5,2.9c0.1,0.3,0.4,0.6,0.7,0.6v0c0,0.5,0.4,0.9,0.9,0.9h3.2
				c0.5,0,0.9-0.4,0.9-0.9c0.5,0,0.8-0.1,1.2-0.2c0.5-0.1,1-0.2,1.6-0.3c1.7-0.2,3.4-0.2,4.5-0.2c1,0,2.8,0.1,4.5,0.2
				c0.5,0,1.1,0.1,1.6,0.3c0.3,0.1,0.7,0.2,1.1,0.2c0,0.5,0.4,0.9,0.9,0.9h3.2c0.5,0,0.9-0.4,0.9-0.9v0c0.3,0,0.6-0.3,0.7-0.6
				c0,0,0.4-1.1,0.5-2.9c0.1-0.9,0.1-2.2,0-3.5C97.6,104.3,97.3,103.9,97.2,103.7z M76.2,101.8c0,0,0-0.1,0.1-0.1c0.5-1,1-2,1.9-2.5
				c1.3-0.7,4.1-1,6.2-1c2.1,0,4.9,0.3,6.2,1c0.9,0.5,1.4,1.5,1.9,2.5l0.1,0.1c0.1,0.2,0,0.5-0.2,0.6c-0.1,0-0.1,0-0.2,0
				c-1.9-0.1-5.8-0.2-7.8-0.2s-5.9,0.2-7.8,0.2c-0.2,0-0.5-0.2-0.5-0.4C76.1,101.9,76.2,101.9,76.2,101.8z M76.9,106.2
				c-1,0.1-1.9,0.2-2.9,0.2c-0.6,0-1.2-0.2-1.3-0.7c-0.1-0.4-0.1-0.6,0-0.8c0-0.2,0.1-0.3,0.4-0.3c0.7-0.1,1.1,0,2.3,0.4
				c0.8,0.2,1.4,0.5,1.7,0.8C77.2,105.9,77.1,106.2,76.9,106.2z M89.4,110.8L89.4,110.8c-0.7,0.1-2.2,0.1-5,0.1s-4.3,0-5-0.1
				c-0.8-0.1-1.7-0.8-1.1-1.5c0.4-0.4,1.5-0.7,2.9-0.9c1.4-0.2,2-0.3,3.3-0.3s1.8,0.1,3.3,0.3c1.4,0.2,2.5,0.5,2.9,0.9
				C91.1,110.1,90.2,110.7,89.4,110.8z M96.1,105.7L96.1,105.7c-0.1,0.5-0.7,0.7-1.3,0.7c-1,0-2-0.1-3-0.2c-0.2,0-0.3-0.3-0.1-0.5
				c0.3-0.3,0.9-0.6,1.7-0.8c1.2-0.4,1.9-0.5,2.5-0.4c0.1,0,0.2,0.2,0.2,0.3C96.1,105.1,96.1,105.4,96.1,105.7z"/>
		</g>
	</g>
</g>
</svg>
