<?xml version="1.0" encoding="utf-8"?>
<!-- Generator: Adobe Illustrator 27.0.0, SVG Export Plug-In . SVG Version: 6.00 Build 0)  -->
<svg version="1.1" id="Capa_1" xmlns="http://www.w3.org/2000/svg" xmlns:xlink="http://www.w3.org/1999/xlink" x="0px" y="0px"
	 viewBox="0 0 200 200" style="enable-background:new 0 0 200 200;" xml:space="preserve">
<style type="text/css">
	.st0{fill:#13314E;}
	.st1{fill:#FFFFFF;}
</style>
<circle class="st0" cx="100" cy="100" r="95"/>
<g>
	<path class="st1" d="M-122.8,81.6c3.4-1.1,7.1,0.8,8.2,4.2c1.1,3.4-0.8,7.1-4.2,8.2l-2-6.2L-122.8,81.6
		C-122.9,81.6-122.8,81.6-122.8,81.6 M-124.7,75.8l-0.2,0.1l-5.7,1.9l1.9,5.7l2.1,6.1l2,6.1l1.8,5.7l5.7-1.8
		c6.6-2.1,10.2-9.2,8.1-15.7S-118.1,73.7-124.7,75.8L-124.7,75.8z"/>
	<path class="st1" d="M-165.7,116.6l7.2,11.6c0.2,0.4,0.5,0.7,0.8,1c2.2,2.3,5.8,2.3,8.1,0.1l4.3-4.2c1.6-1.5,2.1-3.8,1.4-5.9
		l-2.5-7.8c8.5-0.9,17.1,0.3,25,3.6c1.2,0.5,2.6,0.6,3.9,0.2c0.8-0.3,1.5-0.7,2.2-1.3c1.6-1.5,2.3-3.8,1.6-6l-13.7-42.5
		c-0.4-1.3-1.3-2.4-2.4-3.1c-2.7-1.7-6.2-0.9-7.9,1.8c-9.6,15.2-23.3,19.9-23.4,19.9l-10.9,3.5c-7.8,2.5-12.1,10.9-9.6,18.8
		C-179.5,113.2-172.8,117.5-165.7,116.6z M-148.5,104.8l-5.3-16.4c8.2-4.4,15.3-10.7,20.5-18.5l12.2,37.9
		C-129.9,104.6-139.3,103.6-148.5,104.8z M-158.8,114.7l5.6-1.8l2.5,7.8l-2.7,2.7L-158.8,114.7z M-175.2,104.3
		c-1.4-4.2,1-8.7,5.2-10.1l9.8-3.2l4.9,15.3l-9.8,3.2C-169.3,110.9-173.8,108.5-175.2,104.3z"/>
	<g>
		<path class="st1" d="M-74.2,75.8l-16.7,5.4c-1.6,0.5-3.3-0.4-3.8-1.9c-0.5-1.6,0.4-3.3,1.9-3.8l16.7-5.4c1.6-0.5,3.3,0.4,3.8,1.9
			C-71.7,73.6-72.6,75.3-74.2,75.8z"/>
	</g>
	<g>
		<path class="st1" d="M-104.9,70.5c-0.9,0.3-2,0.1-2.8-0.5c-1.3-1.1-1.5-2.9-0.4-4.2L-97,52.2c1.1-1.3,2.9-1.5,4.2-0.4
			c1.3,1.1,1.5,2.9,0.4,4.2l-11.1,13.6C-103.9,70-104.4,70.3-104.9,70.5z"/>
	</g>
	<g>
		<path class="st1" d="M-80,104.3c-0.6,0.2-1.2,0.2-1.8,0l-16.8-5.2c-1.6-0.5-2.5-2.2-2-3.7c0.5-1.6,2.2-2.5,3.7-2l16.8,5.2
			c1.6,0.5,2.5,2.2,2,3.7C-78.3,103.3-79.1,104-80,104.3z"/>
	</g>
</g>
<g>
	<path class="st1" d="M121.9,123l-53.7,0c-0.3,0-0.9,0-1.2-0.2c-2-1-3.4-1.8-3.8-4.3c-0.1-0.8-0.1-1.6-0.1-2.4l0-42.2
		c0-1.1-0.1-2.3,0-3.4c0.3-3.2,3-4.8,6-4.8l9.1,0l52.2,0c0.7,0,1.5-0.1,2.2,0.1c3.2,1.1,4.2,3,4.2,6.4l0,44.2c0,0.7,0,1.3-0.1,2
		c-0.5,3.3-3.2,4.6-6.2,4.6L121.9,123z M69.1,71.5l0,38.7l60.2,0c0.5,0,1.1,0.1,1.7,0l0-37.3c0-0.5,0-1,0-1.4L69.1,71.5z"/>
	<path class="st1" d="M125.7,104.8c-0.2,0.2-5.6,0.1-6.4,0.1c-0.1-0.9,0-2,0-2.9l0-22.3c0-1.8,1.4-3.2,3.2-3.2l0,0
		c1.8,0,3.2,1.4,3.2,3.2L125.7,104.8z"/>
	<path class="st1" d="M103.9,104.9l-2.7,0c-0.1-0.1,0-0.3,0-0.5l0-21.4c0-1.7,1.4-3.1,3.1-3.1c0,0,0.1,0,0.1,0
		c1.7,0,3.1,1.4,3.1,3.1l0,21.9c-0.4,0-0.9,0-1.3,0L103.9,104.9z"/>
	<path class="st1" d="M98.5,104.9l-6.1,0c-0.1-0.7,0-1.4,0-2.1l0-16.8c0-1.7,1.4-3.1,3.1-3.1l0,0c1.7,0,3.1,1.4,3.1,3.1
		C98.5,92,98.5,104.9,98.5,104.9z"/>
	<path class="st1" d="M116.5,104.9l-6.3,0c-0.1-0.7,0-1.4,0-2.1l0-15.4c0-1.7,1.4-3.2,3.2-3.2h0c1.7,0,3.1,1.4,3.1,3.2
		c0,5.5,0,16.1,0,16.1C116.5,104,116.6,104.5,116.5,104.9z"/>
	<path class="st1" d="M86.1,104.9l-2.8,0l0-14.8c0-1.7,1.4-3.1,3.1-3.1l0,0c1.7,0,3.1,1.4,3.1,3.1l0,14.8L86.1,104.9z"/>
	<path class="st1" d="M80.5,104.9l-6.3,0l0-10.6c0-1.7,1.4-3.1,3.1-3.1l0,0c1.7,0,3.1,1.4,3.1,3.1L80.5,104.9z"/>
	<path class="st1" d="M92.5,134.3l-3.8,0c-0.6,0-1.4,0.1-2-0.1c-3.1-0.6-2.8-5.1-0.1-5.5c0.6-0.1,4.2,0.1,4.3-0.1
		c0.5-0.5,1.1-2.2,1.1-2.9l15.5-0.1c0.1-0.1,0.1-0.1,0.2,0c0,1,0.3,1.9,1,2.7c0.3,0.4,0.4,0.3,0.9,0.3l2.5,0c1,0,1.8,0,2.6,0.8
		c1.6,1.5,0.7,4.3-1.4,4.8c-0.6,0.1-1.3,0-1.9,0L92.5,134.3z"/>
</g>
</svg>
