<?xml version="1.0" encoding="utf-8"?>
<!-- Generator: Adobe Illustrator 27.0.0, SVG Export Plug-In . SVG Version: 6.00 Build 0)  -->
<svg version="1.1" id="Capa_1" xmlns="http://www.w3.org/2000/svg" xmlns:xlink="http://www.w3.org/1999/xlink" x="0px" y="0px"
	 viewBox="0 0 572 142" style="enable-background:new 0 0 572 142;" xml:space="preserve">
<style type="text/css">
	.st0{fill:#FFFFFF;}
</style>
<g transform="translate(0.000000,142.000000) scale(0.100000,-0.100000)">
	<g>
		<g>
			<path class="st0" d="M390,1208.3c-41.9-10.6-68.2-29.1-82.5-59.8c-11.4-25.6-13.5-47.7-13.5-157.9c0-140.8,5-162.2,44.8-191.3
				c17.8-13.5,30.6-15,106.7-15c47.7,0,95.3,2.2,106.7,5.7l19.2,5v92.5V980h-24.9h-24.9V906v-73.3l-46.3-5
				c-55.4-5.7-98.2,4.2-113.8,26.3s-15.7,257.5,0,280.2c17.8,24.9,54.7,32.7,128.7,27.8l66.2-5l5,18.5c2.2,9.9,2.9,19.9,0.7,22.1
				c-5.7,5.7-90.3,17-122.3,16.3C424.1,1213.3,402.1,1211.1,390,1208.3z"/>
			<path class="st0" d="M1814.5,1205.4c-81.8-23.4-93.9-45.5-96.7-185.6c-3.5-129.5,0.7-161.5,25.6-189.9
				c28.5-34.2,66.9-49,129.5-49c86.1,0,132.3,29.8,150,94.6c4.2,17,6.4,73.3,5,135.9c-2.9,128-11.4,153.6-63.3,180
				C1925.5,1211.8,1859.3,1217.5,1814.5,1205.4z M1925.5,1154.9c43.4-18.5,47-29.1,47-161.5c0-106.7-1.4-120.2-14.2-135.9
				c-20.6-26.3-50.5-36.2-100.3-32.7c-38.4,2.9-47,5.7-64,25.6l-20.6,22.7v119.5c0,131.5,3.5,143.6,45.5,162.2
				C1847.9,1167,1895.5,1167.7,1925.5,1154.9z"/>
			<path class="st0" d="M649.6,997.8V788h24.9h24.9v71.1v71.1h56.9h56.9l47.7-74.6l48.3-74.6h30.6h29.8l-49.8,74.6
				c-27,40.6-49.8,77.5-49.8,81s6.4,8.6,13.5,11.4c29.1,9.3,39.9,38.4,39.9,113.8c0,88.2-8.6,111.6-49,131.5
				c-25.6,12.1-44.1,14.2-127.3,14.2h-97.5V997.8z M860.1,1140.7c7.1-9.9,9.9-34.2,9.9-76.1c0-81-4.2-84.7-101-84.7h-69.7v89.7v89.6
				l75.4-2.9C839.4,1154.2,851.5,1152.1,860.1,1140.7z"/>
			<path class="st0" d="M1005.1,1036.2c0-192.8,2.9-207,48.3-235.4c20.6-12.8,39.1-16.3,90.3-18.5c56.2-2.2,67.5-0.7,95.3,14.2
				c60.5,31.3,61.1,32,63.3,234l2.2,177.1h-24.9h-24.8l-2.2-168.6c-2.2-184.9-4.2-192.8-44.8-209.8c-28.5-12.1-89.6-11.4-113.1,1.4
				c-37,19.2-39.9,34.9-39.9,213.4v163.5h-24.9H1005L1005.1,1036.2L1005.1,1036.2z"/>
			<path class="st0" d="M1382.1,994.9v-214h28.5h28.5v73.9v73.3l73.3,3.5c127.3,6.4,147.2,24.2,147.2,137.2
				c0,120.2-16.3,133.7-172.1,137.2l-105.3,2.9V994.9z M1592.6,1142.9c10.6-12.1,13.5-26.3,13.5-74.6c0-80.3-3.5-83.9-96-86.7
				l-71.1-2.9v89.6v89.6h69.7C1571.2,1157.8,1580.5,1156.4,1592.6,1142.9z"/>
			<path class="st0" d="M1766.2,637.2c-35.5-9.9-64-32.7-75.4-59.8c-14.2-34.9-14.2-273.1,0.7-300.9
				c30.6-59.8,121.6-85.4,234.7-66.2l28.5,5l-5.7,37l-6.4,37.7h-63.3c-61.1,0-88.9,6.4-100.3,24.2c-2.9,4.2-5.7,56.2-5.7,115.9
				c0,133-2.2,130.2,100.3,130.2h69l6.4,37.7l5.7,37l-28.5,5C1884.2,647.2,1794.6,645.7,1766.2,637.2z"/>
			<path class="st0" d="M315.3,596v-42.6h152.9h152.9V596v42.6H468.2H315.3V596z"/>
			<path class="st0" d="M685.1,425.3V211.9h46.3h46.3v213.4v213.4h-46.3h-46.3V425.3z"/>
			<path class="st0" d="M955.4,635.1c0-2.9-114.5-384.8-124.4-413.9c-2.2-7.1,9.9-9.3,45.5-9.3h49l9.9,41.3l9.9,40.6l75.4,2.2
				l75.4,2.2l9.9-41.3l9.9-41.3l47.7-2.2c26.3-1.4,47.7,0.7,47.7,3.5c0,2.9-28.5,98.2-62.6,212l-63.3,206.3l-64.7,2.2
				C984.5,637.9,955.4,637.2,955.4,635.1z M1043.6,476.5c11.4-37.7,22.1-74.6,24.2-81c2.9-11.4-2.9-12.8-48.3-12.8
				c-41.3,0-50.5,2.2-47.7,9.9c2.2,5.7,12.8,42.6,24.2,81.8c10.6,39.9,21.4,71.9,23.4,71.9S1032.2,514.9,1043.6,476.5z"/>
			<path class="st0" d="M1261.2,425.3V211.9h46.3h46.3l0.7,140.8v140.1l71.1-140.1l70.4-140.8h56.9h56.9v213.4v213.4H1567h-42.6
				V492.1c0-80.3-2.2-144.3-5-142.3c-3.5,1.4-36.2,67.5-73.3,145.8l-67.5,143h-58.3h-59.1L1261.2,425.3L1261.2,425.3z"/>
			<path class="st0" d="M2115.3,615.9c-3.5-12.8-31.3-103.1-61.1-201.2c-29.8-97.5-55.4-183.5-57.6-189.9
				c-3.5-11.4,2.2-12.8,44.8-12.8h49l9.9,41.3l10.6,40.6l76.1,2.2l76.1,2.2l7.8-30.6c4.2-17,9.3-36.2,11.4-42.6
				c2.9-10.6,12.1-12.8,52.7-12.8h48.3l-34.1,108.7c-19.2,59.1-49,155.1-67.5,213.4l-32.7,104.6h-63.3h-62.6L2115.3,615.9z
				 M2213.5,467.2c12.1-41.9,22.1-78.3,22.1-80.3c0-2.2-22.1-4.2-49.8-4.2c-27,0-49.8,1.4-49.8,2.9c0,2.9,41.3,137.9,46.3,152.9
				C2187.9,553.2,2189.3,549,2213.5,467.2z"/>
			<path class="st0" d="M2427.5,596v-42.6h94.6c117.4,0,125.9-4.2,125.9-59.8c0-54.7-5-56.9-122.3-59.8l-98.2-2.9V321.4V211.9h39.1
				h39.1V283v71.1h49.8h49l37.7-71.1l37.7-71.1h48.3c26.3,0,47.7,1.4,47.7,3.5c0,1.4-19.2,37.7-41.9,79.7l-41.9,76.1l19.9,19.9
				c29.1,28.5,37.7,62.6,34.2,128c-3.5,63.3-15.7,86.7-56.2,106.7c-19.9,10.6-44.1,12.8-143,12.8h-119.5V596z"/>
			<path class="st0" d="M315.3,339.9v-128h46.3h46.3v85.4v85.4h99.5h99.5v42.6v42.6H461.1H315.3V339.9z"/>
		</g>
		<g>
			<g>
				<path class="st0" d="M3621,873.9l64.1-20.3c-9.8-35.8-26.2-62.3-49.1-79.7c-22.9-17.4-51.9-26-87.1-26
					c-43.5,0-79.3,14.9-107.3,44.6c-28,29.7-42,70.4-42,121.9c0,54.5,14.1,96.9,42.2,127.1c28.2,30.2,65.2,45.3,111.1,45.3
					c40.1,0,72.6-11.8,97.7-35.5c14.9-14,26.1-34.1,33.5-60.3l-65.5-15.6c-3.9,17-12,30.4-24.2,40.2s-27.2,14.8-44.8,14.8
					c-24.3,0-44-8.7-59.1-26.2c-15.1-17.4-22.7-45.7-22.7-84.7c0-41.4,7.5-70.9,22.4-88.5c14.9-17.6,34.3-26.4,58.1-26.4
					c17.6,0,32.7,5.6,45.4,16.8C3606.4,832.4,3615.5,849.9,3621,873.9z"/>
				<path class="st0" d="M3728.5,915.3c0,33.4,5,61.4,15,84c7.5,16.7,17.6,31.7,30.5,44.9s27,23.1,42.4,29.5c20.4,8.6,44,13,70.6,13
					c48.3,0,86.9-15,115.9-44.9c29-30,43.5-71.6,43.5-124.9c0-52.9-14.4-94.3-43.1-124.2c-28.8-29.9-67.2-44.8-115.3-44.8
					c-48.7,0-87.5,14.9-116.2,44.6C3742.9,822.2,3728.5,863.1,3728.5,915.3z M3796.7,917.5c0-37.1,8.6-65.2,25.7-84.4
					c17.1-19.1,38.9-28.7,65.3-28.7c26.4,0,48,9.5,64.9,28.5c16.9,19,25.4,47.5,25.4,85.5c0,37.5-8.2,65.6-24.7,84
					c-16.5,18.5-38.3,27.7-65.6,27.7s-49.2-9.4-65.9-28.1C3805.1,983.4,3796.7,955.2,3796.7,917.5z"/>
				<path class="st0" d="M4098.7,753.5v327.7h64.4l134.1-218.8v218.8h61.5V753.5h-66.4l-132.1,213.7V753.5H4098.7z"/>
				<path class="st0" d="M4502.3,753.5v272.2h-97.2v55.4h260.4v-55.4h-97V753.5H4502.3z"/>
				<path class="st0" d="M4969.7,753.5h-72l-28.6,74.4h-131l-27.1-74.4h-70.2l127.6,327.7h70L4969.7,753.5z M4847.9,883.1
					l-45.1,121.6l-44.3-121.6H4847.9z"/>
				<path class="st0" d="M5214.4,873.9l64.1-20.3c-9.8-35.8-26.2-62.3-49.1-79.7c-22.9-17.4-51.9-26-87.1-26
					c-43.5,0-79.3,14.9-107.3,44.6c-28,29.7-42,70.4-42,121.9c0,54.5,14.1,96.9,42.2,127.1c28.2,30.2,65.2,45.3,111.1,45.3
					c40.1,0,72.6-11.8,97.7-35.5c14.9-14,26.1-34.1,33.5-60.3l-65.5-15.6c-3.9,17-12,30.4-24.2,40.2s-27.2,14.8-44.8,14.8
					c-24.3,0-44-8.7-59.1-26.2c-15.1-17.4-22.7-45.7-22.7-84.7c0-41.4,7.5-70.9,22.4-88.5c14.9-17.6,34.3-26.4,58.1-26.4
					c17.6,0,32.7,5.6,45.4,16.8C5199.8,832.4,5208.9,849.9,5214.4,873.9z"/>
				<path class="st0" d="M5409.1,753.5v272.2h-97.2v55.4h260.4v-55.4h-97V753.5H5409.1z"/>
				<path class="st0" d="M3621,437.4l64.1-20.3c-9.8-35.8-26.2-62.3-49.1-79.7c-22.9-17.4-51.9-26-87.1-26
					c-43.5,0-79.3,14.9-107.3,44.6c-28,29.7-42,70.4-42,121.9c0,54.5,14.1,96.9,42.2,127.1c28.2,30.2,65.2,45.3,111.1,45.3
					c40.1,0,72.6-11.8,97.7-35.5c14.9-14,26.1-34.1,33.5-60.3l-65.5-15.6c-3.9,17-12,30.4-24.2,40.2s-27.2,14.8-44.8,14.8
					c-24.3,0-44-8.7-59.1-26.2c-15.1-17.4-22.7-45.7-22.7-84.7c0-41.4,7.5-70.9,22.4-88.5c14.9-17.6,34.3-26.4,58.1-26.4
					c17.6,0,32.7,5.6,45.4,16.8C3606.4,395.8,3615.5,413.4,3621,437.4z"/>
				<path class="st0" d="M3742,316.9v327.7h242.9v-55.4h-176.8v-72.6h164.5v-55.2h-164.5v-89.2h183v-55.2H3742z"/>
				<path class="st0" d="M4047.9,316.9v327.7h64.4l134.1-218.8v218.8h61.5V316.9h-66.4l-132.1,213.7V316.9H4047.9z"/>
				<path class="st0" d="M4451.6,316.9v272.2h-97.2v55.4h260.4v-55.4h-97V316.9H4451.6z"/>
				<path class="st0" d="M4657.4,316.9v327.7h242.9v-55.4h-176.8v-72.6h164.5v-55.2h-164.5v-89.2h183v-55.2H4657.4z"/>
				<path class="st0" d="M4963,316.9v327.7h139.2c35,0,60.5-2.9,76.3-8.8c15.9-5.9,28.6-16.4,38.1-31.4c9.5-15,14.3-32.3,14.3-51.6
					c0-24.6-7.2-44.9-21.7-60.9s-36.1-26.1-64.8-30.3c14.3-8.3,26.1-17.5,35.4-27.5c9.3-10,21.9-27.7,37.7-53.2l40-63.9h-79.1
					l-47.8,71.3c-17,25.5-28.6,41.5-34.9,48.2s-12.9,11.2-19.9,13.6c-7,2.5-18.1,3.7-33.3,3.7h-13.4V316.9H4963z M5029.1,506h49
					c31.7,0,51.6,1.3,59.5,4c7.9,2.7,14.1,7.3,18.5,13.9s6.7,14.8,6.7,24.6c0,11-2.9,19.9-8.8,26.7c-5.9,6.8-14.2,11.1-24.9,12.9
					c-5.4,0.7-21.5,1.1-48.3,1.1h-51.6V506z"/>
			</g>
		</g>
	</g>
</g>
<g>
	<g>
		<rect x="305.4" y="10.1" class="st0" width="6" height="121.9"/>
	</g>
</g>
</svg>
