<?xml version="1.0" encoding="utf-8"?>
<!-- Generator: Adobe Illustrator 27.0.0, SVG Export Plug-In . SVG Version: 6.00 Build 0)  -->
<svg version="1.1" id="Capa_1" xmlns="http://www.w3.org/2000/svg" xmlns:xlink="http://www.w3.org/1999/xlink" x="0px" y="0px"
	 viewBox="0 0 200 200" style="enable-background:new 0 0 200 200;" xml:space="preserve">
<style type="text/css">
	.st0{fill:#13314E;}
	.st1{fill:#FFFFFF;}
	.st2{fill-rule:evenodd;clip-rule:evenodd;fill:#13314E;}
	.st3{fill-rule:evenodd;clip-rule:evenodd;fill:#FFFFFF;}
	.st4{fill-rule:evenodd;clip-rule:evenodd;fill:#FF0000;}
	.st5{fill-rule:evenodd;clip-rule:evenodd;fill:#C1272D;}
</style>
<circle class="st0" cx="100" cy="100" r="95"/>
<g>
	<path class="st1" d="M-81.8,53.2c3.4-1.1,7.1,0.8,8.2,4.2s-0.8,7.1-4.2,8.2l-2-6.2L-81.8,53.2L-81.8,53.2 M-83.6,47.4l-0.2,0.1
		l-5.7,1.9l1.9,5.7l2.1,6.1l2,6.1l1.8,5.7l5.7-1.8c6.6-2.1,10.2-9.2,8.1-15.7S-77.1,45.3-83.6,47.4L-83.6,47.4z"/>
	<path class="st1" d="M-124.7,88.2l7.2,11.6c0.2,0.4,0.5,0.7,0.8,1c2.2,2.3,5.8,2.3,8.1,0.1l4.3-4.2c1.6-1.5,2.1-3.8,1.4-5.9
		l-2.5-7.8c8.5-0.9,17.1,0.3,25,3.6c1.2,0.5,2.6,0.6,3.9,0.2c0.8-0.3,1.5-0.7,2.2-1.3c1.6-1.5,2.3-3.8,1.6-6L-86.4,37
		c-0.4-1.3-1.3-2.4-2.4-3.1c-2.7-1.7-6.2-0.9-7.9,1.8c-9.6,15.2-23.3,19.9-23.4,19.9l-10.9,3.5c-7.8,2.5-12.1,10.9-9.6,18.8
		C-138.5,84.8-131.8,89.1-124.7,88.2z M-107.5,76.4l-5.3-16.4c8.2-4.4,15.3-10.7,20.5-18.5L-80,79.4
		C-88.8,76.2-98.2,75.2-107.5,76.4z M-117.8,86.3l5.6-1.8l2.5,7.8l-2.7,2.7L-117.8,86.3z M-134.2,75.9c-1.4-4.2,1-8.7,5.2-10.1
		l9.8-3.2l4.9,15.3l-9.8,3.2C-128.3,82.5-132.8,80.1-134.2,75.9z"/>
	<g>
		<path class="st1" d="M-33.2,47.4l-16.7,5.4c-1.6,0.5-3.3-0.4-3.8-1.9c-0.5-1.6,0.4-3.3,1.9-3.8l16.7-5.4c1.6-0.5,3.3,0.4,3.8,1.9
			S-31.6,46.9-33.2,47.4z"/>
	</g>
	<g>
		<path class="st1" d="M-63.9,42.1c-0.9,0.3-2,0.1-2.8-0.5c-1.3-1.1-1.5-2.9-0.4-4.2L-56,23.8c1.1-1.3,2.9-1.5,4.2-0.4
			s1.5,2.9,0.4,4.2l-11.1,13.6C-62.8,41.6-63.3,41.9-63.9,42.1z"/>
	</g>
	<g>
		<path class="st1" d="M-38.9,75.9c-0.6,0.2-1.2,0.2-1.8,0l-16.8-5.2c-1.6-0.5-2.5-2.2-2-3.7c0.5-1.6,2.2-2.5,3.7-2l16.8,5.2
			c1.6,0.5,2.5,2.2,2,3.7C-37.3,74.9-38,75.6-38.9,75.9z"/>
	</g>
</g>
<path class="st1" d="M-213.7,100c-13.2,0-29,10.5-29,29v13.2c0,4,1.7,6.8,3.5,8.4c1.1,1,1.5,1,2.3,1.3c1,2.5,7.1,16.7,23.1,16.7
	c0.1,0,0.2,0,0.3,0l0,0l0,0l0,0c6-0.1,10.8-2.3,14.5-5.3h-14.8c-14,0-18.6-14-18.6-14l-0.5-1.4l-1.4-0.4c0,0-0.7-0.2-1.5-0.9
	s-1.7-1.8-1.7-4.4v-2.6h2.6c0-18.4,26.3-5.3,34.2-23.7c0,0,7.9,7.3,7.9,23.7v7.9h2.2c-1.1,3.1-4,5.3-7.4,5.3h-10.8
	c-0.5-1.5-2-2.6-3.7-2.6h-2.6c-2.2,0-3.9,1.8-3.9,3.9s1.8,3.9,3.9,3.9h2.6c0.2,0,0.5,0,0.7-0.1c0.2,0,0.4,0.1,0.6,0.1l0,0h13.2
	c6.6,0,12-4.9,13-11.2c1.7-0.9,2.8-2.6,2.8-4.6v-2.6c0-1.9-1.1-3.6-2.6-4.5v-6c0-10.5-5.3-23.7-15.8-23.7
	C-200.5,105.3-203.2,100-213.7,100L-213.7,100L-213.7,100z"/>
<g>
	<g>
		<g>
			<path class="st1" d="M-98.2,213.8H-133c-4.8,0-8.7-3.9-8.7-8.7v-34.8c0-4.8,3.9-8.7,8.7-8.7h34.8c4.8,0,8.7,3.9,8.7,8.7v34.8
				C-89.5,209.9-93.4,213.8-98.2,213.8z M-133,167.4c-1.6,0-2.9,1.3-2.9,2.9v34.8c0,1.6,1.3,2.9,2.9,2.9h34.8c1.6,0,2.9-1.3,2.9-2.9
				v-34.8c0-1.6-1.3-2.9-2.9-2.9H-133z M-104,202.2h-14.5c-1.6,0-2.9-1.3-2.9-2.9s1.3-2.9,2.9-2.9h14.5c1.6,0,2.9,1.3,2.9,2.9
				S-102.4,202.2-104,202.2z M-104,190.6h-14.5c-1.6,0-2.9-1.3-2.9-2.9c0-1.6,1.3-2.9,2.9-2.9h14.5c1.6,0,2.9,1.3,2.9,2.9
				S-102.4,190.6-104,190.6z M-104,179h-14.5c-1.6,0-2.9-1.3-2.9-2.9c0-1.6,1.3-2.9,2.9-2.9h14.5c1.6,0,2.9,1.3,2.9,2.9
				S-102.4,179-104,179z"/>
		</g>
		<circle class="st1" cx="-128.4" cy="176.1" r="2.9"/>
		<circle class="st1" cx="-128.4" cy="187.7" r="2.9"/>
		<circle class="st1" cx="-128.4" cy="199.3" r="2.9"/>
	</g>
	<g>
		<g>
			<path class="st0" d="M-141.3,178.7c-12.3,0-22.4-10-22.4-22.4c0-12.3,10-22.4,22.4-22.4s22.4,10,22.4,22.4
				C-118.9,168.6-128.9,178.7-141.3,178.7z"/>
			<path class="st0" d="M-141.3,136.9c10.7,0,19.4,8.7,19.4,19.4s-8.7,19.4-19.4,19.4s-19.4-8.7-19.4-19.4S-152,136.9-141.3,136.9
				 M-141.3,130.9c-14,0-25.4,11.4-25.4,25.4s11.4,25.4,25.4,25.4s25.4-11.4,25.4-25.4S-127.3,130.9-141.3,130.9L-141.3,130.9z"/>
		</g>
		<g>
			<g>
				<path class="st1" d="M-145.5,172.5v-3.6c-3.1-1.1-5.2-3.7-6-7.4l-0.6-2.8l3.7-1c-0.5-0.5-1-1.1-1.3-1.8
					c-0.7-1.3-1.1-2.8-1.1-4.4c0-2.1,0.6-4,1.9-5.7c0.9-1.2,2.1-2.1,3.5-2.7v-3h8.5v3c2.6,1.1,4.4,3.2,5.3,6.2l0.8,2.6l-3.3,1.3
					c0.8,0.6,1.5,1.4,2.1,2.4c0.8,1.3,1.2,2.9,1.2,4.5c0,2.5-0.8,4.6-2.3,6.4c-1,1.1-2.3,1.9-3.8,2.5v3.6h-8.6V172.5z"/>
				<path class="st0" d="M-140,143v2.3c2.8,0.3,4.6,1.9,5.5,4.8l-3.5,1.4c-0.7-1.9-1.7-2.9-3.1-2.9c-0.7,0-1.3,0.2-1.7,0.7
					c-0.4,0.4-0.6,1-0.6,1.6s0.2,1.1,0.6,1.5c0.4,0.3,1.3,0.8,2.7,1.3c1.5,0.5,2.7,1.1,3.5,1.5c0.8,0.5,1.5,1.2,2,2
					c0.5,0.9,0.8,1.9,0.8,3c0,1.8-0.5,3.2-1.6,4.4c-1,1.2-2.5,1.9-4.5,2.1v3h-2.5v-3c-3.3-0.3-5.3-2.2-6.1-5.7l3.9-1
					c0.4,2.2,1.5,3.3,3.6,3.3c0.9,0,1.6-0.2,2.1-0.7c0.4-0.5,0.7-1,0.7-1.7s-0.2-1.2-0.7-1.6c-0.4-0.4-1.4-0.8-3-1.3
					c-1.4-0.5-2.5-0.9-3.2-1.4c-0.8-0.5-1.4-1.1-1.9-2c-0.5-0.8-0.7-1.8-0.7-2.9c0-1.5,0.4-2.8,1.3-4c0.9-1.2,2.2-1.9,4.1-2.2V143
					H-140 M-134,137h-6h-2.5h-6v4.2c-1.3,0.8-2.3,1.8-2.9,2.7c-1.6,2.2-2.5,4.8-2.5,7.5c0,1.5,0.3,3,0.8,4.3l-2.6,0.7l1.3,5.7
					c0.9,3.9,3,6.9,6,8.7v4.7h6h2.5h6v-4.7c1.3-0.7,2.3-1.6,3-2.4c2-2.3,3.1-5.2,3.1-8.4c0-2.1-0.5-4-1.4-5.7l2-0.8l-1.5-5.2
					c-0.9-3.2-2.7-5.6-5.2-7.2V137H-134z"/>
			</g>
			<g>
				<path class="st1" d="M-141.3,181.4c-13.8,0-25.1-11.3-25.1-25.1s11.3-25.1,25.1-25.1s25.1,11.3,25.1,25.1
					C-116.2,170.1-127.4,181.4-141.3,181.4z M-141.3,141.6c-8.1,0-14.7,6.6-14.7,14.7c0,8.1,6.6,14.7,14.7,14.7s14.7-6.6,14.7-14.7
					C-126.6,148.2-133.2,141.6-141.3,141.6z"/>
				<path class="st0" d="M-141.3,134.2c12.2,0,22.1,9.9,22.1,22.1c0,12.2-9.9,22.1-22.1,22.1s-22.1-9.9-22.1-22.1
					C-163.4,144.1-153.5,134.2-141.3,134.2 M-141.3,174c9.7,0,17.7-7.9,17.7-17.7c0-9.7-7.9-17.7-17.7-17.7
					c-9.7,0-17.7,7.9-17.7,17.7C-158.9,166-151,174-141.3,174 M-141.3,128.2c-15.5,0-28.1,12.6-28.1,28.1s12.6,28.1,28.1,28.1
					s28.1-12.6,28.1-28.1C-113.2,140.8-125.8,128.2-141.3,128.2L-141.3,128.2z M-141.3,168c-6.4,0-11.7-5.2-11.7-11.7
					c0-6.4,5.2-11.7,11.7-11.7c6.4,0,11.7,5.2,11.7,11.7C-129.6,162.7-134.8,168-141.3,168L-141.3,168z"/>
			</g>
		</g>
	</g>
</g>
<g>
	<g id="Layer_1">
		<path class="st1" d="M-131.4-22.4h-35.5c-3.8,0-6.9,3.1-6.9,6.9v46.1c0,3.8,3.1,6.9,6.9,6.9h35.5c3.8,0,6.9-3.1,6.9-6.9v-46.1
			C-124.5-19.3-127.6-22.4-131.4-22.4z M-129.1,30.6c0,1.3-1,2.3-2.3,2.3h-35.5c-1.3,0-2.3-1-2.3-2.3v-46.1c0-1.3,1-2.3,2.3-2.3
			h35.5c1.3,0,2.3,1,2.3,2.3V30.6z"/>
		<path class="st1" d="M-162.6-7.9h13.5c1.3,0,2.3-1,2.3-2.3s-1-2.3-2.3-2.3h-13.5c-1.3,0-2.3,1-2.3,2.3S-163.9-7.9-162.6-7.9z"/>
		<path class="st1" d="M-135.6-3.6h-27c-1.3,0-2.3,1-2.3,2.3s1,2.3,2.3,2.3h27c1.3,0,2.3-1,2.3-2.3C-133.3-2.6-134.4-3.6-135.6-3.6z
			"/>
		<path class="st1" d="M-135.6,5.3h-27c-1.3,0-2.3,1-2.3,2.3s1,2.3,2.3,2.3h27c1.3,0,2.3-1,2.3-2.3C-133.3,6.3-134.4,5.3-135.6,5.3z
			"/>
		<path class="st1" d="M-135.6,14.1h-27c-1.3,0-2.3,1-2.3,2.3s1,2.3,2.3,2.3h27c1.3,0,2.3-1,2.3-2.3
			C-133.3,15.1-134.4,14.1-135.6,14.1z"/>
		<path class="st1" d="M-135.6,23h-27c-1.3,0-2.3,1-2.3,2.3s1,2.3,2.3,2.3h27c1.3,0,2.3-1,2.3-2.3C-133.3,24-134.4,23-135.6,23z"/>
	</g>
	<g>
		<path class="st0" d="M-159-37.5h-34.7c-1.7,0-3.2,1.4-3.2,3.2V0.4c0,1.7,1.4,3.2,3.2,3.2h34.7c1.7,0,3.2-1.4,3.2-3.2v-34.8
			C-155.9-36.1-157.3-37.5-159-37.5z"/>
		<g>
			<path class="st0" d="M-162.2-33.8h-28.4c-1.4,0-2.6,1.2-2.6,2.6v28.4c0,1.4,1.2,2.6,2.6,2.6h28.4c1.4,0,2.6-1.2,2.6-2.6v-28.4
				C-159.6-32.7-160.7-33.8-162.2-33.8z"/>
			<path class="st1" d="M-171.2-20.9h5.2c0.7,0,1.3,0.6,1.3,1.3l0,0c0,0.7-0.6,1.3-1.3,1.3h-5.2c-0.7,0-1.3-0.6-1.3-1.3l0,0
				C-172.5-20.3-171.9-20.9-171.2-20.9z"/>
			<path class="st1" d="M-181.5-10.6h-1.3v-1.3c0-0.7-0.6-1.3-1.3-1.3l0,0c-0.7,0-1.3,0.6-1.3,1.3v1.3h-1.3c-0.7,0-1.3,0.6-1.3,1.3
				l0,0c0,0.7,0.6,1.3,1.3,1.3h1.3v1.3c0,0.7,0.6,1.3,1.3,1.3l0,0c0.7,0,1.3-0.6,1.3-1.3V-8h1.3c0.7,0,1.3-0.6,1.3-1.3l0,0
				C-180.3-10-180.8-10.6-181.5-10.6z"/>
			<path class="st1" d="M-186.7-26.1h5.2c0.7,0,1.3,0.6,1.3,1.3l0,0c0,0.7-0.6,1.3-1.3,1.3h-5.2c-0.7,0-1.3-0.6-1.3-1.3l0,0
				C-188-25.5-187.4-26.1-186.7-26.1z"/>
			<path class="st1" d="M-171.2-15.8h5.2c0.7,0,1.3,0.6,1.3,1.3l0,0c0,0.7-0.6,1.3-1.3,1.3h-5.2c-0.7,0-1.3-0.6-1.3-1.3l0,0
				C-172.5-15.2-171.9-15.8-171.2-15.8z"/>
			<path class="st1" d="M-162.2-33.8h-28.4c-1.4,0-2.6,1.2-2.6,2.6v28.4c0,1.4,1.2,2.6,2.6,2.6h28.4c1.4,0,2.6-1.2,2.6-2.6v-28.4
				C-159.6-32.7-160.7-33.8-162.2-33.8z M-177.7-31.2v12.9h-12.9v-12.9H-177.7z M-190.6-15.8h12.9v12.9h-12.9V-15.8z M-175.1-2.8
				v-28.4h12.9v28.4H-175.1z"/>
		</g>
	</g>
</g>
<g>
	<circle class="st2" cx="99.2" cy="99.6" r="44.5"/>
	<path class="st1" d="M99.2,59.2c22.3,0,40.4,18.1,40.4,40.4s-18.1,40.4-40.4,40.4s-40.4-18.1-40.4-40.4S76.9,59.2,99.2,59.2
		 M99.2,52.8c-25.8,0-46.8,21-46.8,46.8s21,46.8,46.8,46.8s46.8-21,46.8-46.8S125,52.8,99.2,52.8L99.2,52.8z"/>
	<g>
		<path class="st3" d="M152.5,99.6L152.5,99.6c0,2.6-2.2,4.8-5,4.8H138c-2.8,0-5-2.1-5-4.8v0c0-2.6,2.2-4.8,5-4.8h9.5
			C150.3,94.8,152.5,97,152.5,99.6z"/>
		<path class="st3" d="M65.3,99.6L65.3,99.6c0,2.6-2.2,4.8-5,4.8h-9.5c-2.8,0-5-2.1-5-4.8v0c0-2.6,2.2-4.8,5-4.8h9.5
			C63.1,94.8,65.3,97,65.3,99.6z"/>
		<path class="st3" d="M99.2,66L99.2,66c-2.6,0-4.8-2.2-4.8-5v-9.5c0-2.8,2.1-5,4.8-5h0c2.6,0,4.8,2.2,4.8,5V61
			C104,63.8,101.9,66,99.2,66z"/>
		<path class="st3" d="M99.2,152.6L99.2,152.6c-2.6,0-4.8-2.2-4.8-5v-9.5c0-2.8,2.1-5,4.8-5h0c2.6,0,4.8,2.2,4.8,5v9.5
			C104,150.4,101.9,152.6,99.2,152.6z"/>
	</g>
	<path class="st4" d="M83.4,73.5c-0.8,0.3-1.3,1.1-1,1.9l9.7,30.6c0.1,0.4,0.6,0.6,1,0.5s0.6-0.6,0.5-1L86.5,83l10.1-3.2
		c0.4-0.1,0.7-0.6,0.6-1.1c-0.1-0.2-0.2-0.3-0.3-0.4l-3.6-2.7l1.4-4.3c0.1-0.4-0.1-0.9-0.5-1.1c-0.2-0.1-0.4-0.1-0.5,0L83.4,73.5z"
		/>
	<g>
		<path class="st1" d="M123.9,104.6c-0.8-1.7-2.2-3.1-3.9-3.8c-0.3-0.1-0.4-0.4-0.4-0.7v0c0-0.2,0.1-0.4,0.2-0.5
			c1.8-1.8,1.8-4.6,0.1-6.4s-4.6-1.8-6.4-0.1c-1.8,1.8-1.8,4.6-0.1,6.4c0,0,0,0,0.1,0.1c0.2,0.1,0.2,0.3,0.2,0.5v0
			c0,0.3-0.2,0.6-0.4,0.7c-1.8,0.7-3.2,2.1-4,3.8c-0.2,0.4-0.4,0.9-0.5,1.4c-0.1,0.5,0,1,0.3,1.3c1.3,1.4,2.9,2.4,4.8,2.9
			c2.3,0.6,5.2,0.3,5.7,0.1c2.7-0.8,3.2-1.6,4.5-3c0.3-0.4,0.5-0.9,0.3-1.3C124.3,105.5,124.1,105,123.9,104.6z"/>
		<path class="st1" d="M89.2,104.6c-0.8-1.7-2.2-3.1-3.9-3.8c-0.3-0.1-0.4-0.4-0.4-0.7v0c0-0.2,0.1-0.4,0.2-0.5
			c1.8-1.8,1.8-4.6,0.1-6.4s-4.6-1.8-6.4-0.1s-1.8,4.6-0.1,6.4c0,0,0,0,0.1,0.1c0.2,0.1,0.2,0.3,0.2,0.5v0c0,0.3-0.2,0.6-0.4,0.7
			c-1.8,0.7-3.2,2.1-4,3.8c-0.2,0.4-0.4,0.9-0.5,1.4c-0.1,0.5,0,1,0.3,1.3c1.3,1.4,2.9,2.4,4.8,2.9c2.3,0.6,5.2,0.3,5.7,0.1
			c2.7-0.8,3.2-1.6,4.5-3c0.3-0.4,0.5-0.9,0.3-1.3C89.6,105.5,89.4,105,89.2,104.6z"/>
		<g>
			<path class="st1" d="M99.8,122.1c-2.2,0-4.2-0.2-5.9-0.7c-3.6-1-6.8-3-9.4-5.6c-0.9-1-1.2-2.3-0.9-3.6c0.3-0.9,0.6-1.8,1-2.7
				c1.6-3.5,4.4-6.2,7.9-7.6c0,0,0.1-0.1,0.1-0.1c0-0.1,0-0.1-0.1-0.2l-0.2-0.2c-1.8-1.8-2.8-4.3-2.7-6.8c0-2.6,1.1-5,2.9-6.8
				c1.8-1.8,4.2-2.7,6.7-2.7c2.6,0,5.1,1,6.9,2.9c1.8,1.8,2.8,4.3,2.7,6.8c0,2.6-1.1,5-2.9,6.8c-0.1,0.1-0.1,0.1-0.1,0.2
				c0,0.1,0,0.1,0.1,0.1c3.5,1.4,6.3,4.2,7.9,7.6c0.4,0.8,0.7,1.7,1,2.6c0.3,1.2,0,2.5-0.8,3.5c-2.3,2.9-3.8,4.3-9,5.9
				C104.4,121.8,102.3,122.1,99.8,122.1L99.8,122.1z"/>
			<g>
				<path class="st0" d="M99.3,86.2c2.2,0,4.4,0.8,6,2.5c3.2,3.3,3.2,8.7-0.1,11.9c-0.3,0.3-0.4,0.6-0.4,1v0c0,0.5,0.3,1,0.8,1.2
					c3.2,1.3,5.8,3.8,7.3,7c0.4,0.8,0.7,1.6,0.9,2.5c0.2,0.9,0,1.8-0.6,2.5c-2.1,2.6-3.4,4-8.4,5.5c-0.5,0.2-2.5,0.5-5,0.5
					c-1.8,0-3.8-0.2-5.6-0.7c-3.4-0.9-6.4-2.8-8.8-5.3c-0.6-0.7-0.9-1.6-0.6-2.5c0.2-0.9,0.6-1.7,0.9-2.5c1.4-3.2,4.1-5.7,7.3-7.1
					c0.5-0.2,0.8-0.7,0.8-1.2v0c0-0.4-0.2-0.7-0.4-1c0,0-0.1-0.1-0.1-0.1c-3.2-3.3-3.2-8.7,0.1-11.9C95,87,97.1,86.2,99.3,86.2
					 M99.3,83.9c-2.8,0-5.5,1.1-7.5,3.1c-2.1,2-3.2,4.7-3.3,7.6c0,2.5,0.8,4.9,2.3,6.8c-3.2,1.7-5.7,4.3-7.3,7.7
					c-0.4,0.9-0.8,1.9-1.1,2.8c-0.5,1.7,0,3.5,1.2,4.8c2.7,2.8,6.1,4.9,9.9,5.9c1.8,0.5,3.9,0.8,6.2,0.8c2.4,0,4.8-0.3,5.7-0.6
					c5.5-1.7,7.2-3.3,9.6-6.3c1.1-1.4,1.5-3,1-4.6c-0.3-1-0.6-1.9-1.1-2.8c-1.5-3.3-4-6-7.2-7.6c1.5-1.9,2.3-4.2,2.3-6.6
					c0-2.9-1.1-5.6-3.1-7.7C104.9,85,102.2,83.9,99.3,83.9L99.3,83.9z"/>
			</g>
		</g>
	</g>
</g>
<path class="st5" d="M392.9,106.9c-2.6,0-4.7,2.1-4.7,4.7V149c0,1.3,1,2.3,2.3,2.3c1.3,0,2.3-1,2.3-2.3v-11.7h32.3
	c1.4,0,2.6-1.2,2.6-2.6c0-0.5-0.2-1.1-0.5-1.5l-8.1-11.1l8.1-11.1c0.8-1.1,0.6-2.8-0.6-3.6c-0.4-0.3-1-0.5-1.5-0.5H392.9z
	 M392.9,132.7v-21H421l-6.2,8.5c-0.9,1.2-0.9,2.9,0,4.1l6.1,8.5H392.9z"/>
</svg>
