<?xml version="1.0" encoding="utf-8"?>
<!-- Generator: Adobe Illustrator 27.0.0, SVG Export Plug-In . SVG Version: 6.00 Build 0)  -->
<svg version="1.1" id="Capa_1" xmlns="http://www.w3.org/2000/svg" xmlns:xlink="http://www.w3.org/1999/xlink" x="0px" y="0px"
	 viewBox="0 0 200 200" style="enable-background:new 0 0 200 200;" xml:space="preserve">
<style type="text/css">
	.st0{fill:#13314E;}
	.st1{fill:#FFFFFF;}
</style>
<circle class="st0" cx="100" cy="100" r="95"/>
<g>
	<path class="st1" d="M-81.8,53.2c3.4-1.1,7.1,0.8,8.2,4.2c1.1,3.4-0.8,7.1-4.2,8.2l-2-6.2L-81.8,53.2
		C-81.8,53.2-81.8,53.2-81.8,53.2 M-83.6,47.4l-0.2,0.1l-5.7,1.9l1.9,5.7l2.1,6.1l2,6.1l1.8,5.7l5.7-1.8c6.6-2.1,10.2-9.2,8.1-15.7
		S-77.1,45.3-83.6,47.4L-83.6,47.4z"/>
	<path class="st1" d="M-124.7,88.2l7.2,11.6c0.2,0.4,0.5,0.7,0.8,1c2.2,2.3,5.8,2.3,8.1,0.1l4.3-4.2c1.6-1.5,2.1-3.8,1.4-5.9
		l-2.5-7.8c8.5-0.9,17.1,0.3,25,3.6c1.2,0.5,2.6,0.6,3.9,0.2c0.8-0.3,1.5-0.7,2.2-1.3c1.6-1.5,2.3-3.8,1.6-6l-13.7-42.5
		c-0.4-1.3-1.3-2.4-2.4-3.1c-2.7-1.7-6.2-0.9-7.9,1.8c-9.6,15.2-23.3,19.9-23.4,19.9l-10.9,3.5c-7.8,2.5-12.1,10.9-9.6,18.8
		C-138.5,84.8-131.8,89.1-124.7,88.2z M-107.5,76.4l-5.3-16.4c8.2-4.4,15.3-10.7,20.5-18.5L-80,79.4
		C-88.8,76.2-98.2,75.2-107.5,76.4z M-117.8,86.3l5.6-1.8l2.5,7.8l-2.7,2.7L-117.8,86.3z M-134.2,75.9c-1.4-4.2,1-8.7,5.2-10.1
		l9.8-3.2l4.9,15.3l-9.8,3.2C-128.3,82.5-132.8,80.1-134.2,75.9z"/>
	<g>
		<path class="st1" d="M-33.2,47.4l-16.7,5.4c-1.6,0.5-3.3-0.4-3.8-1.9c-0.5-1.6,0.4-3.3,1.9-3.8l16.7-5.4c1.6-0.5,3.3,0.4,3.8,1.9
			S-31.6,46.9-33.2,47.4z"/>
	</g>
	<g>
		<path class="st1" d="M-63.9,42.1c-0.9,0.3-2,0.1-2.8-0.5c-1.3-1.1-1.5-2.9-0.4-4.2L-56,23.8c1.1-1.3,2.9-1.5,4.2-0.4
			c1.3,1.1,1.5,2.9,0.4,4.2l-11.1,13.6C-62.8,41.6-63.3,41.9-63.9,42.1z"/>
	</g>
	<g>
		<path class="st1" d="M-38.9,75.9c-0.6,0.2-1.2,0.2-1.8,0l-16.8-5.2c-1.6-0.5-2.5-2.2-2-3.7c0.5-1.6,2.2-2.5,3.7-2l16.8,5.2
			c1.6,0.5,2.5,2.2,2,3.7C-37.3,74.9-38,75.6-38.9,75.9z"/>
	</g>
</g>
<path class="st1" d="M-213.7,100c-13.2,0-29,10.5-29,29v13.2c0,4,1.7,6.8,3.5,8.4c1.1,1,1.5,1,2.3,1.3c1,2.5,7.1,16.7,23.1,16.7
	c0.1,0,0.2,0,0.3,0c0,0,0,0,0,0s0,0,0,0l0,0c6-0.1,10.8-2.3,14.5-5.3h-14.8c-14,0-18.6-14-18.6-14l-0.5-1.4l-1.4-0.4
	c0,0-0.7-0.2-1.5-0.9c-0.8-0.7-1.7-1.8-1.7-4.4v-2.6h2.6c0-18.4,26.3-5.3,34.2-23.7c0,0,7.9,7.3,7.9,23.7v7.9h2.2
	c-1.1,3.1-4,5.3-7.4,5.3h-10.8c-0.5-1.5-2-2.6-3.7-2.6h-2.6c-2.2,0-3.9,1.8-3.9,3.9s1.8,3.9,3.9,3.9h2.6c0.2,0,0.5,0,0.7-0.1
	c0.2,0,0.4,0.1,0.6,0.1c0,0,0,0,0,0h13.2c6.6,0,12-4.9,13-11.2c1.7-0.9,2.8-2.6,2.8-4.6v-2.6c0-1.9-1.1-3.6-2.6-4.5v-6
	c0-10.5-5.3-23.7-15.8-23.7C-200.5,105.3-203.2,100-213.7,100L-213.7,100L-213.7,100z"/>
<g>
	<g>
		<g>
			<path class="st1" d="M123.2,138.8H88.5c-4.8,0-8.7-3.9-8.7-8.7V95.3c0-4.8,3.9-8.7,8.7-8.7h34.8c4.8,0,8.7,3.9,8.7,8.7v34.8
				C131.9,134.9,128,138.8,123.2,138.8z M88.5,92.4c-1.6,0-2.9,1.3-2.9,2.9v34.8c0,1.6,1.3,2.9,2.9,2.9h34.8c1.6,0,2.9-1.3,2.9-2.9
				V95.3c0-1.6-1.3-2.9-2.9-2.9H88.5z M117.4,127.2H103c-1.6,0-2.9-1.3-2.9-2.9c0-1.6,1.3-2.9,2.9-2.9h14.5c1.6,0,2.9,1.3,2.9,2.9
				C120.3,125.9,119.1,127.2,117.4,127.2z M117.4,115.6H103c-1.6,0-2.9-1.3-2.9-2.9s1.3-2.9,2.9-2.9h14.5c1.6,0,2.9,1.3,2.9,2.9
				S119.1,115.6,117.4,115.6z M117.4,104H103c-1.6,0-2.9-1.3-2.9-2.9s1.3-2.9,2.9-2.9h14.5c1.6,0,2.9,1.3,2.9,2.9
				S119.1,104,117.4,104z"/>
		</g>
		<circle class="st1" cx="93" cy="101.1" r="2.9"/>
		<circle class="st1" cx="93" cy="112.7" r="2.9"/>
		<circle class="st1" cx="93" cy="124.3" r="2.9"/>
	</g>
	<g>
		<g>
			<path class="st0" d="M80.1,103.7c-12.3,0-22.4-10-22.4-22.4c0-12.3,10-22.4,22.4-22.4s22.4,10,22.4,22.4
				C102.5,93.6,92.5,103.7,80.1,103.7z"/>
			<path class="st0" d="M80.1,61.9c10.7,0,19.4,8.7,19.4,19.4s-8.7,19.4-19.4,19.4S60.8,92,60.8,81.3S69.4,61.9,80.1,61.9
				 M80.1,55.9c-14,0-25.4,11.4-25.4,25.4s11.4,25.4,25.4,25.4s25.4-11.4,25.4-25.4S94.1,55.9,80.1,55.9L80.1,55.9z"/>
		</g>
		<g>
			<g>
				<path class="st1" d="M75.9,97.5v-3.6c-3.1-1.1-5.2-3.7-6-7.4l-0.6-2.8l3.7-1c-0.5-0.5-1-1.1-1.3-1.8c-0.7-1.3-1.1-2.8-1.1-4.4
					c0-2.1,0.6-4,1.9-5.7c0.9-1.2,2.1-2.1,3.5-2.7v-3h8.5v3c2.6,1.1,4.4,3.2,5.3,6.2l0.8,2.6l-3.3,1.3c0.8,0.6,1.5,1.4,2.1,2.4
					c0.8,1.3,1.2,2.9,1.2,4.5c0,2.5-0.8,4.6-2.3,6.4c-1,1.1-2.3,1.9-3.8,2.5v3.6H75.9z"/>
				<path class="st0" d="M81.4,68v2.3c2.8,0.3,4.6,1.9,5.5,4.8l-3.5,1.4c-0.7-1.9-1.7-2.9-3.1-2.9c-0.7,0-1.3,0.2-1.7,0.7
					c-0.4,0.4-0.6,1-0.6,1.6c0,0.6,0.2,1.1,0.6,1.5c0.4,0.3,1.3,0.8,2.7,1.3c1.5,0.5,2.7,1.1,3.5,1.5c0.8,0.5,1.5,1.2,2,2
					c0.5,0.9,0.8,1.9,0.8,3c0,1.8-0.5,3.2-1.6,4.4c-1,1.2-2.5,1.9-4.5,2.1v3h-2.5v-3c-3.3-0.3-5.3-2.2-6.1-5.7l3.9-1
					c0.4,2.2,1.5,3.3,3.6,3.3c0.9,0,1.6-0.2,2.1-0.7c0.4-0.5,0.7-1,0.7-1.7c0-0.7-0.2-1.2-0.7-1.6c-0.4-0.4-1.4-0.8-3-1.3
					c-1.4-0.5-2.5-0.9-3.2-1.4c-0.8-0.5-1.4-1.1-1.9-2c-0.5-0.8-0.7-1.8-0.7-2.9c0-1.5,0.4-2.8,1.3-4c0.9-1.2,2.2-1.9,4.1-2.2V68
					H81.4 M87.4,62h-6h-2.5h-6v4.2c-1.3,0.8-2.3,1.8-2.9,2.7c-1.6,2.2-2.5,4.8-2.5,7.5c0,1.5,0.3,3,0.8,4.3l-2.6,0.7l1.3,5.7
					c0.9,3.9,3,6.9,6,8.7v4.7h6h2.5h6v-4.7c1.3-0.7,2.3-1.6,3-2.4c2-2.3,3.1-5.2,3.1-8.4c0-2.1-0.5-4-1.4-5.7l2-0.8l-1.5-5.2
					c-0.9-3.2-2.7-5.6-5.2-7.2V62L87.4,62z"/>
			</g>
			<g>
				<path class="st1" d="M80.1,106.4c-13.8,0-25.1-11.3-25.1-25.1c0-13.8,11.3-25.1,25.1-25.1c13.8,0,25.1,11.3,25.1,25.1
					C105.2,95.1,94,106.4,80.1,106.4z M80.1,66.6c-8.1,0-14.7,6.6-14.7,14.7c0,8.1,6.6,14.7,14.7,14.7s14.7-6.6,14.7-14.7
					C94.8,73.2,88.2,66.6,80.1,66.6z"/>
				<path class="st0" d="M80.1,59.2c12.2,0,22.1,9.9,22.1,22.1c0,12.2-9.9,22.1-22.1,22.1c-12.2,0-22.1-9.9-22.1-22.1
					C58.1,69.1,67.9,59.2,80.1,59.2 M80.1,98.9c9.7,0,17.7-7.9,17.7-17.7c0-9.7-7.9-17.7-17.7-17.7c-9.7,0-17.7,7.9-17.7,17.7
					C62.5,91,70.4,98.9,80.1,98.9 M80.1,53.2c-15.5,0-28.1,12.6-28.1,28.1c0,15.5,12.6,28.1,28.1,28.1c15.5,0,28.1-12.6,28.1-28.1
					C108.2,65.8,95.6,53.2,80.1,53.2L80.1,53.2z M80.1,92.9c-6.4,0-11.7-5.2-11.7-11.7c0-6.4,5.2-11.7,11.7-11.7
					c6.4,0,11.7,5.2,11.7,11.7C91.8,87.7,86.6,92.9,80.1,92.9L80.1,92.9z"/>
			</g>
		</g>
	</g>
</g>
</svg>
