<?xml version="1.0" encoding="utf-8"?>
<!-- Generator: Adobe Illustrator 27.0.0, SVG Export Plug-In . SVG Version: 6.00 Build 0)  -->
<svg version="1.1" id="Capa_1" xmlns="http://www.w3.org/2000/svg" xmlns:xlink="http://www.w3.org/1999/xlink" x="0px" y="0px"
	 viewBox="0 0 200 200" style="enable-background:new 0 0 200 200;" xml:space="preserve">
<style type="text/css">
	.st0{fill:#13314E;}
	.st1{fill:#FFFFFF;}
</style>
<circle class="st0" cx="100" cy="100" r="95"/>
<path class="st1" d="M143.6,85.2l-40.3-12.4c-2.2-0.7-4.6-0.7-6.8,0L56.4,85.2c-3.4,1-3.4,5.5,0,6.6l7,2.2c-1.5,1.9-2.5,4.2-2.6,6.8
	c-1.4,0.8-2.4,2.2-2.4,4c0,1.6,0.8,2.9,2,3.7l-3.7,16.6c-0.3,1.4,0.8,2.8,2.3,2.8h8.1c1.5,0,2.6-1.4,2.3-2.8l-3.7-16.6
	c1.2-0.8,2-2.1,2-3.7c0-1.7-0.9-3.1-2.3-3.9c0.1-2.2,1.2-4.1,3-5.3l28.2,8.7c1.3,0.4,3.8,0.9,6.8,0l40.3-12.4
	C147,90.7,147,86.2,143.6,85.2L143.6,85.2z M104.7,108.5c-4.1,1.3-7.6,0.6-9.5,0l-20.9-6.4l-2,16.4c0,5.1,12.4,9.2,27.7,9.2
	s27.7-4.1,27.7-9.2l-2-16.4L104.7,108.5z"/>
</svg>
