<?xml version="1.0" encoding="utf-8"?>
<!-- Generator: Adobe Illustrator 27.0.0, SVG Export Plug-In . SVG Version: 6.00 Build 0)  -->
<svg version="1.1" id="Capa_1" xmlns="http://www.w3.org/2000/svg" xmlns:xlink="http://www.w3.org/1999/xlink" x="0px" y="0px"
	 viewBox="0 0 200 200" style="enable-background:new 0 0 200 200;" xml:space="preserve">
<style type="text/css">
	.st0{fill:#13314E;}
	.st1{fill:#FFFFFF;}
	.st2{fill-rule:evenodd;clip-rule:evenodd;fill:#FFFFFF;}
	.st3{fill-rule:evenodd;clip-rule:evenodd;fill:#13314E;}
</style>
<circle class="st0" cx="100" cy="100" r="95"/>
<g>
	<path class="st0" d="M136.9,128.5c0-0.1,0.1-0.2,0.1-0.3c0-0.1,0-0.3,0-0.4c0-0.1,0-0.1,0-0.2V80.8c0,0,0-0.1,0-0.1
		c0-0.1,0-0.3,0-0.4c0-0.1,0-0.2-0.1-0.3c0-0.1-0.1-0.2-0.1-0.3c0-0.1-0.1-0.2-0.1-0.3c0-0.1-0.1-0.2-0.2-0.3
		c-0.1-0.1-0.1-0.2-0.2-0.3c-0.1-0.1-0.1-0.2-0.2-0.3c-0.1-0.1-0.2-0.2-0.2-0.3c-0.1-0.1-0.2-0.1-0.3-0.2c-0.1-0.1-0.2-0.2-0.3-0.2
		c0,0-0.1,0-0.1-0.1c-10.5-6.1-23.4-6.4-34.2-1c-10.8-5.4-23.7-5.1-34.2,1c0,0-0.1,0-0.1,0.1c-0.1,0.1-0.2,0.1-0.3,0.2
		c-0.1,0.1-0.2,0.1-0.3,0.2c-0.1,0.1-0.2,0.2-0.2,0.3c-0.1,0.1-0.2,0.2-0.2,0.3c-0.1,0.1-0.1,0.2-0.2,0.3c-0.1,0.1-0.1,0.2-0.2,0.3
		c0,0.1-0.1,0.2-0.1,0.3c0,0.1-0.1,0.2-0.1,0.3c0,0.1,0,0.2-0.1,0.3c0,0.1,0,0.3,0,0.4c0,0,0,0.1,0,0.1v46.8c0,0.1,0,0.1,0,0.2
		c0,0.1,0,0.3,0,0.4c0,0.1,0,0.2,0.1,0.3c0,0.1,0.1,0.2,0.1,0.3c0,0.1,0.1,0.2,0.2,0.4c0,0.1,0,0.1,0.1,0.2c0,0,0,0.1,0.1,0.1
		c0.1,0.1,0.1,0.2,0.2,0.3c0.1,0.1,0.1,0.2,0.2,0.3c0.1,0.1,0.2,0.2,0.3,0.2c0.1,0.1,0.2,0.2,0.3,0.2c0.1,0.1,0.2,0.1,0.3,0.2
		c0.1,0.1,0.2,0.1,0.3,0.2c0.1,0,0.2,0.1,0.3,0.1c0.1,0,0.2,0.1,0.3,0.1c0.1,0,0.2,0,0.3,0.1c0.1,0,0.2,0,0.4,0c0,0,0.1,0,0.1,0
		c0.1,0,0.1,0,0.2,0c0.1,0,0.2,0,0.4,0c0.1,0,0.2,0,0.4-0.1c0.1,0,0.2-0.1,0.3-0.1c0.1,0,0.2-0.1,0.4-0.2c0.1,0,0.1,0,0.2-0.1
		c8.9-5.1,19.9-5.1,28.8,0c0.1,0.1,0.2,0.1,0.3,0.2c0,0,0.1,0,0.1,0c0.2,0.1,0.4,0.1,0.6,0.2c0.1,0,0.1,0,0.2,0
		c0.2,0,0.4,0.1,0.6,0.1c0,0,0,0,0.1,0s0,0,0.1,0c0.2,0,0.4,0,0.6-0.1c0.1,0,0.1,0,0.2,0c0.2,0,0.4-0.1,0.6-0.2c0,0,0.1,0,0.1,0
		c0.1,0,0.2-0.1,0.3-0.2c8.9-5.1,19.9-5.1,28.8,0c0.1,0.1,0.2,0.1,0.3,0.2c0,0,0.1,0,0.1,0c0.2,0.1,0.4,0.1,0.6,0.2c0,0,0.1,0,0.1,0
		c0.2,0,0.4,0.1,0.6,0.1c0,0,0,0,0,0c0,0,0,0,0,0c0,0,0,0,0,0c0.2,0,0.4,0,0.6-0.1c0.1,0,0.1,0,0.2,0c0.2,0,0.4-0.1,0.6-0.2
		c0,0,0.1,0,0.1,0c0.2-0.1,0.3-0.2,0.5-0.2c0,0,0.1-0.1,0.1-0.1c0.2-0.1,0.3-0.2,0.5-0.4c0,0,0,0,0,0c0.1-0.1,0.2-0.3,0.4-0.4
		c0,0,0.1-0.1,0.1-0.2c0,0,0.1-0.1,0.1-0.1c0-0.1,0.1-0.1,0.1-0.2c0.1-0.1,0.1-0.2,0.2-0.4C136.8,128.7,136.8,128.6,136.9,128.5z"/>
	<path class="st1" d="M136.9,128.5c0-0.1,0.1-0.2,0.1-0.3c0-0.1,0-0.3,0-0.4c0-0.1,0-0.1,0-0.2V80.8c0,0,0-0.1,0-0.1
		c0-0.1,0-0.3,0-0.4c0-0.1,0-0.2-0.1-0.3c0-0.1-0.1-0.2-0.1-0.3c0-0.1-0.1-0.2-0.1-0.3c0-0.1-0.1-0.2-0.2-0.3
		c-0.1-0.1-0.1-0.2-0.2-0.3c-0.1-0.1-0.1-0.2-0.2-0.3c-0.1-0.1-0.2-0.2-0.2-0.3c-0.1-0.1-0.2-0.1-0.3-0.2c-0.1-0.1-0.2-0.2-0.3-0.2
		c0,0-0.1,0-0.1-0.1c-10.5-6.1-23.4-6.4-34.2-1c-10.8-5.4-23.7-5.1-34.2,1c0,0-0.1,0-0.1,0.1c-0.1,0.1-0.2,0.1-0.3,0.2
		c-0.1,0.1-0.2,0.1-0.3,0.2c-0.1,0.1-0.2,0.2-0.2,0.3c-0.1,0.1-0.2,0.2-0.2,0.3c-0.1,0.1-0.1,0.2-0.2,0.3c-0.1,0.1-0.1,0.2-0.2,0.3
		c0,0.1-0.1,0.2-0.1,0.3c0,0.1-0.1,0.2-0.1,0.3c0,0.1,0,0.2-0.1,0.3c0,0.1,0,0.3,0,0.4c0,0,0,0.1,0,0.1v46.8c0,0.1,0,0.1,0,0.2
		c0,0.1,0,0.3,0,0.4c0,0.1,0,0.2,0.1,0.3c0,0.1,0.1,0.2,0.1,0.3c0,0.1,0.1,0.2,0.2,0.4c0,0.1,0,0.1,0.1,0.2c0,0,0,0.1,0.1,0.1
		c0.1,0.1,0.1,0.2,0.2,0.3c0.1,0.1,0.1,0.2,0.2,0.3c0.1,0.1,0.2,0.2,0.3,0.2c0.1,0.1,0.2,0.2,0.3,0.2c0.1,0.1,0.2,0.1,0.3,0.2
		c0.1,0.1,0.2,0.1,0.3,0.2c0.1,0,0.2,0.1,0.3,0.1c0.1,0,0.2,0.1,0.3,0.1c0.1,0,0.2,0,0.3,0.1c0.1,0,0.2,0,0.4,0c0,0,0.1,0,0.1,0
		c0.1,0,0.1,0,0.2,0c0.1,0,0.2,0,0.4,0c0.1,0,0.2,0,0.4-0.1c0.1,0,0.2-0.1,0.3-0.1c0.1,0,0.2-0.1,0.4-0.2c0.1,0,0.1,0,0.2-0.1
		c8.9-5.1,19.9-5.1,28.8,0c0.1,0.1,0.2,0.1,0.3,0.2c0,0,0.1,0,0.1,0c0.2,0.1,0.4,0.1,0.6,0.2c0.1,0,0.1,0,0.2,0
		c0.2,0,0.4,0.1,0.6,0.1c0,0,0,0,0.1,0s0,0,0.1,0c0.2,0,0.4,0,0.6-0.1c0.1,0,0.1,0,0.2,0c0.2,0,0.4-0.1,0.6-0.2c0,0,0.1,0,0.1,0
		c0.1,0,0.2-0.1,0.3-0.2c8.9-5.1,19.9-5.1,28.8,0c0.1,0.1,0.2,0.1,0.3,0.2c0,0,0.1,0,0.1,0c0.2,0.1,0.4,0.1,0.6,0.2c0,0,0.1,0,0.1,0
		c0.2,0,0.4,0.1,0.6,0.1c0,0,0,0,0,0c0,0,0,0,0,0c0,0,0,0,0,0c0.2,0,0.4,0,0.6-0.1c0.1,0,0.1,0,0.2,0c0.2,0,0.4-0.1,0.6-0.2
		c0,0,0.1,0,0.1,0c0.2-0.1,0.3-0.2,0.5-0.2c0,0,0.1-0.1,0.1-0.1c0.2-0.1,0.3-0.2,0.5-0.4c0,0,0,0,0,0c0.1-0.1,0.2-0.3,0.4-0.4
		c0,0,0.1-0.1,0.1-0.2c0,0,0.1-0.1,0.1-0.1c0-0.1,0.1-0.1,0.1-0.2c0.1-0.1,0.1-0.2,0.2-0.4C136.8,128.7,136.8,128.6,136.9,128.5z
		 M72.3,121.9V83c7.9-3.9,17.2-3.9,25.2,0v39C89.3,118.9,80.4,118.9,72.3,121.9z M104.6,121.9V83c7.9-3.9,17.2-3.9,25.2,0v39
		C121.7,118.9,112.7,118.9,104.6,121.9z"/>
	<g>
		<path class="st2" d="M53.5,100.6c-1.4,0-2.7-0.5-3.7-1.5s-1.5-2.3-1.5-3.7c0-1.4,0.5-2.7,1.5-3.7L63,78.6
			c-2.2-5.1-1.1-11.1,2.9-15.1c2.6-2.6,6-4,9.7-4c3.7,0,7.1,1.4,9.7,4c5.4,5.4,5.4,14.1,0,19.4c-2.6,2.6-6,4-9.7,4
			c-1.8,0-3.7-0.4-5.3-1.1L57.1,99.1C56.2,100.1,54.9,100.6,53.5,100.6C53.5,100.6,53.5,100.6,53.5,100.6z"/>
		<path class="st0" d="M75.6,61.1c3.1,0,6.3,1.2,8.7,3.6c4.8,4.8,4.8,12.5,0,17.3c-2.4,2.4-5.5,3.6-8.7,3.6c-1.9,0-3.9-0.5-5.7-1.4
			L56.1,98c-0.7,0.7-1.6,1.1-2.6,1.1c-1,0-1.9-0.4-2.6-1.1c-0.7-0.7-1.1-1.6-1.1-2.6c0-1,0.4-1.9,1.1-2.6L64.8,79
			c-2.4-4.6-1.7-10.4,2.2-14.3C69.4,62.3,72.5,61.1,75.6,61.1 M76,56.8c-4.3,0-8.3,1.7-11.4,4.7c-4.4,4.4-5.8,10.9-3.8,16.6
			L47.7,91.3c-1.3,1.3-2.1,3.1-2.1,5c0,1.9,0.7,3.7,2.1,5c1.3,1.3,3.1,2.1,5,2.1c1.9,0,3.7-0.7,5-2.1l13.1-13.1
			c1.7,0.6,3.5,0.9,5.2,0.9c4.3,0,8.3-1.7,11.4-4.7c3-3,4.7-7.1,4.7-11.4c0-4.3-1.7-8.3-4.7-11.4C84.3,58.5,80.3,56.8,76,56.8
			L76,56.8z"/>
	</g>
	<g>
		<circle class="st3" cx="75.6" cy="73.1" r="11.1"/>
		<g>
			<g transform="matrix(0.606092,-0.606092,0.707107,0.707107,-11.9345,25.6432)">
				<g>
					<path class="st2" d="M40.1,95.6c0,3.4-3.2,6.1-7.1,6.1c-0.8,0-1.4,0.5-1.4,1.2c0,0.7,0.6,1.2,1.4,1.2c5.5,0,10-3.8,10-8.6
						c0-0.7-0.6-1.2-1.4-1.2S40.1,94.9,40.1,95.6z"/>
				</g>
			</g>
			<g>
				<path class="st2" d="M64.8,79L50.9,92.8c-0.7,0.7-1.1,1.6-1.1,2.6c0,1,0.4,1.9,1.1,2.6c0.7,0.7,1.6,1.1,2.6,1.1
					c1,0,1.9-0.4,2.6-1.1L70,84.1c4.6,2.4,10.4,1.7,14.3-2.2c4.8-4.8,4.8-12.5,0-17.3s-12.5-4.8-17.3,0C63.1,68.5,62.4,74.3,64.8,79
					z M82.5,66.4c3.8,3.8,3.8,10,0,13.8c-3.8,3.8-10,3.8-13.8,0c-3.8-3.8-3.8-10,0-13.8C72.5,62.5,78.7,62.5,82.5,66.4z"/>
			</g>
		</g>
	</g>
</g>
</svg>
