<?xml version="1.0" encoding="utf-8"?>
<!-- Generator: Adobe Illustrator 27.0.0, SVG Export Plug-In . SVG Version: 6.00 Build 0)  -->
<svg version="1.1" id="Capa_1" xmlns="http://www.w3.org/2000/svg" xmlns:xlink="http://www.w3.org/1999/xlink" x="0px" y="0px"
	 viewBox="0 0 200 200" style="enable-background:new 0 0 200 200;" xml:space="preserve">
<style type="text/css">
	.st0{fill:#13314E;}
	.st1{fill:#FFFFFF;}
</style>
<circle class="st0" cx="100" cy="100" r="95"/>
<g>
	<g>
		<path class="st1" d="M-143.6,96.6c0.5-2.6,0.9-5.2,1.6-7.8c5-18,22.5-30,41.1-28.3c18.8,1.7,33.8,16.5,35.6,35.3
			c0.8,8.1-0.8,15.6-4.7,22.7c-1.5,2.8-4,3.6-6.9,2c-1.9-1-3.8-2.1-5.6-3.2c-1.5-0.9-1.6-1.6-0.6-3.3c1-1.7,1.6-2,3.2-1.2
			c0.7,0.3,1.3,0.7,2.2,1.2c4.6-8.9,4.8-17.9,0.9-27.2c-2.1,1.4-4.2,2.5-5.5-0.8c-1-2.6,1.5-2.7,2.5-3.8c-2.7-6-15-13.1-21.8-12.5
			c0,1.1,0,2.3,0,3.5c-0.1,1.6-0.6,2-2.7,2c-2,0-2.4-0.4-2.5-2c0-1.1,0-2.1-0.1-3.2c0-0.1-0.1-0.2-0.2-0.5
			c-9.1,0.9-16.3,5.2-21.9,12.7c2.1,1.2,4.3,2.3,2,5.2c-1.8,2.2-3,0-4.5-0.3c-4,6.5-4.2,19.1,0.8,26.9c0.6-0.4,1.3-0.7,2-1.1
			c1.5-0.8,2.2-0.5,3.2,1.3c1,1.7,0.8,2.4-0.7,3.3c-1.8,1.1-3.6,2.1-5.5,3.1c-2.8,1.5-5.3,0.8-6.9-2c-2.6-4.6-4.2-9.5-4.7-14.8
			c0-0.4-0.2-0.9-0.3-1.3C-143.6,100.4-143.6,98.5-143.6,96.6z"/>
		<path class="st1" d="M-104.3,105.6c-2.6-0.2-4.8-1.7-5.7-4.2c-0.8-2.4,0-5.1,2.1-6.7c2.1-1.6,4.8-1.6,7-0.1c0.9,0.5,1.9,0.9,2.9,1
			c6,0.7,12.1,1.2,18.1,1.8c1.3,0.1,2.4,0.5,2.5,2.1c0.1,1.3-0.7,2.1-2.5,2.3c-5.4,0.5-10.8,1-16.2,1.4c-2,0.2-3.9,0.1-5.6,1.5
			C-102.3,105.3-103.4,105.4-104.3,105.6z"/>
		<path class="st1" d="M-104.3,117.7c2.9,0,5.7,0,8.6,0c2.3,0,3.3,1.1,3.4,3.4c0.1,4.3-0.1,5.7-5.4,5.6c-5-0.1-9.9,0-14.9,0
			c-2.7,0-3.7-1-3.7-3.7c-0.1-4.7,0.5-5.2,5.1-5.2C-108.9,117.7-106.6,117.7-104.3,117.7z"/>
	</g>
</g>
<g>
	<g id="_x39_-Phone_Book">
		<g>
			<path class="st1" d="M-152.1-10h10.5c0.9,0,1.7-0.7,1.7-1.7v-6.7c0-0.9-0.7-1.7-1.7-1.7h-10.5c-0.9,0-1.7,0.7-1.7,1.7v6.7
				C-153.8-10.7-153-10-152.1-10z"/>
			<path class="st1" d="M-152.1,5h10.5c0.9,0,1.7-0.7,1.7-1.7v-6.7c0-0.9-0.7-1.7-1.7-1.7h-10.5c-0.9,0-1.7,0.7-1.7,1.7v6.7
				C-153.8,4.2-153,5-152.1,5z"/>
			<path class="st1" d="M-139.9,18.3v-6.7c0-0.9-0.7-1.7-1.7-1.7h-10.5c-0.9,0-1.7,0.7-1.7,1.7v6.7c0,0.9,0.7,1.7,1.7,1.7h10.5
				C-140.6,20-139.9,19.2-139.9,18.3z"/>
			<path class="st1" d="M-87.3-38.3h-52c-4.6,0-8.3,3.7-8.3,8.3v6.7h6c2.8,0,5,2.2,5,5v6.7c0,1.7-0.9,3.3-2.2,4.2
				c1.3,0.9,2.2,2.4,2.2,4.2v6.7c0,1.7-0.9,3.3-2.2,4.2c1.3,0.9,2.2,2.4,2.2,4.2v6.7c0,2.8-2.2,5-5,5h-6V30c0,4.6,3.7,8.3,8.3,8.3
				h52c4.6,0,8.3-3.7,8.3-8.3V-30C-78.9-34.6-82.7-38.3-87.3-38.3z"/>
		</g>
	</g>
	<g>
		<path class="st0" d="M-119.2,8.7l-0.4-1.3h-6.1l-0.4,1.3c-0.3,1-1.2,1.6-2.3,1.6h0c-1.7,0-2.8-1.6-2.2-3.2l5.4-15
			c0.4-1.1,1.4-1.8,2.5-1.8h0c1.1,0,2.1,0.7,2.5,1.8l5.5,15c0.6,1.5-0.6,3.1-2.2,3.1h-0.1C-118,10.4-118.9,9.7-119.2,8.7z M-123-0.6
			l-1,3c-0.2,0.4,0.2,0.9,0.7,0.9h1.7c0.4,0,0.7-0.4,0.6-0.8l-1-3.1C-122.2-1-122.9-1-123-0.6z"/>
		<path class="st0" d="M-112.2,2.1L-112.2,2.1c0-1.2,1-2.2,2.2-2.2h4.9c1.2,0,2.2,1,2.2,2.2v0c0,1.2-1,2.2-2.2,2.2h-4.9
			C-111.2,4.3-112.2,3.3-112.2,2.1z"/>
		<path class="st0" d="M-100.8,7.4L-100.8,7.4c0-0.6,0.2-1.1,0.5-1.6l7.2-11h-5.1c-1.2,0-2.2-1-2.2-2.2v0c0-1.2,1-2.2,2.2-2.2h8.1
			c1.6,0,2.9,1.3,2.9,2.9v0c0,0.6-0.2,1.1-0.5,1.6l-7.2,11h5.5c1.2,0,2.2,1,2.2,2.2v0c0,1.2-1,2.2-2.2,2.2h-8.4
			C-99.5,10.4-100.8,9-100.8,7.4z"/>
	</g>
</g>
<g>
	<g>
		<path class="st1" d="M60.3,92.3c1.8,1,3.6,1.9,5.3,2.8c1.7,1,3.4,1.2,5.1-0.1c0.1-0.1,0.5-0.1,0.6,0c0.3,0.1,0.6,0.4,1,0.6
			c1.5,0.9,3.1,0.4,3.7-1.3c1.1-2.9,2.4-5.5,4.3-8c3.4-4.5,7.6-7.9,12.8-10.1c2.1-0.9,2.6-2.4,1.3-4.3c-0.4-0.6-0.6-1.1-0.1-1.9
			c0.8-1.2,0.7-2.6-0.1-3.9c-1.1-1.9-2.2-3.8-3.4-5.8c5.7-1.5,11.4-1.8,17.2-0.9c9.5,1.5,17.6,5.8,24.3,12.8
			c14.1,15,15,37.7,3.4,53.5c-11.9,16.3-33.2,22-51.4,13.8C66.2,131.5,56.2,111.8,60.3,92.3z M101.4,122.6c12,0,21.6-9.6,21.6-21.6
			c0-11.7-9.4-21.2-20.9-21.5c-12.5-0.3-22.5,10-22.2,22.1C80.2,113.4,89.9,122.7,101.4,122.6z"/>
		<path class="st1" d="M73.8,57.7c0.7,0.3,1.2,0.4,1.8,0.7c1.4,0.8,2.8,0.9,4.2,0.2c1.2-0.6,2.3-1.1,3.5-1.6
			c1.6-0.7,2.9-0.2,3.8,1.3c1.7,2.9,3.4,5.8,5.1,8.6c0.9,1.4,0.4,2.6-1.1,3.1c-7.7,2.6-13.7,7.4-17.8,14.4c-1.3,2.3-2.3,4.9-3.2,7.4
			c-0.8,2-1.6,2.4-3.5,1.4c-2.8-1.5-5.6-3-8.4-4.5c-1.7-0.9-2.2-2.1-1.5-3.9c0.4-1.2,0.9-2.4,1.4-3.5c0.6-1.5,0.5-2.8-0.4-4.1
			c-0.9-1.2-0.9-2.4-0.1-3.6c3.8-5.9,8.5-10.9,14.3-14.9C72.5,58.3,73.1,58.1,73.8,57.7z M75.6,65.6c0-1.3-1.2-2.4-2.5-2.4
			c-1.3,0-2.4,1.1-2.4,2.5c0,1.3,1.1,2.4,2.4,2.4C74.5,68.1,75.6,66.9,75.6,65.6z M62.4,74.4c0,1.3,1.1,2.5,2.4,2.5
			c1.3,0,2.4-1.1,2.5-2.4c0-1.3-1.1-2.4-2.4-2.5C63.5,72,62.4,73.1,62.4,74.4z"/>
		<path class="st1" d="M73.8,94c-0.6-0.4-1.1-0.6-1.4-0.9c-0.2-0.2-0.2-0.7-0.1-1C74.3,85.4,78.2,80,84,76c2.3-1.6,4.7-2.8,7.3-3.8
			c0.5-0.2,1.8,0.9,1.6,1.5c-0.1,0.2-0.4,0.4-0.6,0.5c-4.5,1.9-8.4,4.7-11.6,8.3c-2.8,3.1-4.9,6.6-6.4,10.5
			C74.1,93.2,74,93.5,73.8,94z"/>
		<path class="st0" d="M101.4,122.6c-11.5,0.1-21.2-9.3-21.5-21c-0.3-12.2,9.7-22.5,22.2-22.1c11.5,0.3,20.9,9.8,20.9,21.5
			C123,113.1,113.4,122.6,101.4,122.6z M101.4,107.4c3.6,0,6.4-2.8,6.4-6.3c0-3.5-2.8-6.3-6.3-6.3c-3.5,0-6.4,2.8-6.4,6.3
			C95.1,104.6,97.9,107.4,101.4,107.4z M111.4,112.5c1.1,0,1.9-0.8,1.9-1.8c0-1.1-0.9-2-1.9-1.9c-1,0-1.9,0.9-1.9,1.9
			C109.5,111.7,110.4,112.5,111.4,112.5z M91.5,89.7c-1.1,0-1.9,0.8-1.9,1.8c0,1,0.8,1.9,1.9,1.9c1.1,0,1.9-0.8,1.9-1.9
			C93.4,90.5,92.6,89.7,91.5,89.7z M109.3,88.7c0-1.1-0.8-1.9-1.8-1.9c-1,0-2,0.9-2,1.9c0,1.1,0.8,1.9,1.9,1.9
			C108.5,90.6,109.3,89.8,109.3,88.7z M93.6,113.5c0,1.1,0.8,1.9,1.8,1.9c1,0,1.9-0.8,2-1.8c0-1.1-0.8-1.9-1.9-2
			C94.4,111.6,93.6,112.4,93.6,113.5z M103.9,112.8c-1,0-1.9,0.9-1.9,1.9c0,1,0.9,1.9,1.9,1.9c1.1,0,1.9-0.8,1.9-2
			C105.8,113.5,105,112.8,103.9,112.8z M113.6,92.7c-1.1,0-1.9,0.8-1.9,1.9c0,1,0.9,1.9,1.9,1.9c1.1,0,1.9-0.8,1.9-2
			C115.5,93.4,114.7,92.7,113.6,92.7z M87.8,101.1c1.1,0,1.9-0.8,1.9-1.8c0-1-0.8-1.9-1.8-2c-1.1,0-2,0.8-2,1.9
			C85.9,100.3,86.7,101.1,87.8,101.1z M115.1,104.8c1.1,0,1.9-0.8,1.9-1.8c0-1.1-0.7-1.9-1.8-1.9c-1.1,0-2,0.8-2,1.9
			C113.2,104,114.1,104.8,115.1,104.8z M99,89.4c1,0,1.9-0.9,1.9-1.9c0-1-0.9-1.9-1.9-1.9c-1.1,0-1.9,0.8-1.9,2
			C97.2,88.7,97.9,89.4,99,89.4z M89.3,109.5c1.1,0,2-0.8,2-1.9c0-1-0.9-1.9-1.9-1.9c-1.1,0-1.9,0.8-1.9,1.9
			C87.5,108.7,88.2,109.5,89.3,109.5z"/>
		<path class="st0" d="M75.6,65.6c0,1.3-1.1,2.5-2.4,2.5c-1.3,0-2.4-1.1-2.4-2.4c0-1.3,1-2.4,2.4-2.5C74.4,63.2,75.6,64.3,75.6,65.6
			z"/>
		<path class="st0" d="M62.4,74.4c0-1.3,1.1-2.4,2.4-2.4c1.3,0,2.4,1.2,2.4,2.5c0,1.3-1.2,2.4-2.5,2.4
			C63.5,76.9,62.4,75.7,62.4,74.4z"/>
		<path class="st1" d="M101.4,107.4c-3.5,0-6.3-2.8-6.3-6.4c0-3.5,2.9-6.3,6.4-6.3c3.5,0,6.3,2.9,6.3,6.3
			C107.8,104.6,105,107.4,101.4,107.4z"/>
		<path class="st1" d="M111.4,112.5c-1.1,0-1.9-0.8-1.9-1.9c0-1.1,0.8-1.9,1.9-1.9c1.1,0,2,0.9,1.9,1.9
			C113.3,111.7,112.5,112.5,111.4,112.5z"/>
		<path class="st1" d="M91.5,89.7c1.1,0,1.9,0.8,1.9,1.9c0,1.1-0.9,1.9-1.9,1.9c-1,0-1.9-0.9-1.9-1.9C89.6,90.5,90.5,89.7,91.5,89.7
			z"/>
		<path class="st1" d="M109.3,88.7c0,1.1-0.8,1.9-1.9,1.8c-1.1,0-1.9-0.8-1.9-1.9c0-1.1,0.9-2,2-1.9
			C108.5,86.8,109.3,87.7,109.3,88.7z"/>
		<path class="st1" d="M93.6,113.5c0-1.1,0.8-1.8,1.9-1.8c1.1,0,1.9,0.8,1.9,2c0,1-0.9,1.9-2,1.8C94.4,115.4,93.6,114.5,93.6,113.5z
			"/>
		<path class="st1" d="M103.9,112.8c1.1,0,1.9,0.7,1.9,1.8c0,1.1-0.8,2-1.9,2c-1,0-1.9-0.8-1.9-1.9
			C102,113.6,102.8,112.8,103.9,112.8z"/>
		<path class="st1" d="M113.6,92.7c1.1,0,1.9,0.7,1.9,1.8c0,1.1-0.8,2-1.9,2c-1,0-1.9-0.9-1.9-1.9C111.7,93.5,112.5,92.7,113.6,92.7
			z"/>
		<path class="st1" d="M87.8,101.1c-1.1,0-1.9-0.8-1.9-1.9c0-1.1,0.9-1.9,2-1.9c1,0,1.8,0.9,1.8,2C89.7,100.4,88.8,101.2,87.8,101.1
			z"/>
		<path class="st1" d="M115.1,104.8c-1,0-1.9-0.8-1.9-1.9c0-1.1,0.9-1.9,2-1.9c1.1,0,1.8,0.8,1.8,1.9
			C117,104.1,116.2,104.8,115.1,104.8z"/>
		<path class="st1" d="M99,89.4c-1.1,0-1.9-0.7-1.9-1.8c0-1.1,0.8-2,1.9-2c1,0,1.9,0.9,1.9,1.9C100.9,88.6,100.1,89.4,99,89.4z"/>
		<path class="st1" d="M89.3,109.5c-1.1,0-1.8-0.8-1.8-1.9c0-1.1,0.8-1.9,1.9-1.9c1,0,1.9,0.9,1.9,1.9
			C91.3,108.7,90.4,109.5,89.3,109.5z"/>
	</g>
</g>
</svg>
