<?xml version="1.0" encoding="utf-8"?>
<!-- Generator: Adobe Illustrator 27.0.0, SVG Export Plug-In . SVG Version: 6.00 Build 0)  -->
<svg version="1.1" id="Capa_1" xmlns="http://www.w3.org/2000/svg" xmlns:xlink="http://www.w3.org/1999/xlink" x="0px" y="0px"
	 viewBox="0 0 200 200" style="enable-background:new 0 0 200 200;" xml:space="preserve">
<style type="text/css">
	.st0{fill:#13314E;}
	.st1{fill:#FFFFFF;}
</style>
<circle class="st0" cx="100" cy="100" r="95"/>
<g>
	<g>
		<path class="st1" d="M-143.6,96.6c0.5-2.6,0.9-5.2,1.6-7.8c5-18,22.5-30,41.1-28.3c18.8,1.7,33.8,16.5,35.6,35.3
			c0.8,8.1-0.8,15.6-4.7,22.7c-1.5,2.8-4,3.6-6.9,2c-1.9-1-3.8-2.1-5.6-3.2c-1.5-0.9-1.6-1.6-0.6-3.3c1-1.7,1.6-2,3.2-1.2
			c0.7,0.3,1.3,0.7,2.2,1.2c4.6-8.9,4.8-17.9,0.9-27.2c-2.1,1.4-4.2,2.5-5.5-0.8c-1-2.6,1.5-2.7,2.5-3.8c-2.7-6-15-13.1-21.8-12.5
			c0,1.1,0,2.3,0,3.5c-0.1,1.6-0.6,2-2.7,2c-2,0-2.4-0.4-2.5-2c0-1.1,0-2.1-0.1-3.2c0-0.1-0.1-0.2-0.2-0.5
			c-9.1,0.9-16.3,5.2-21.9,12.7c2.1,1.2,4.3,2.3,2,5.2c-1.8,2.2-3,0-4.5-0.3c-4,6.5-4.2,19.1,0.8,26.9c0.6-0.4,1.3-0.7,2-1.1
			c1.5-0.8,2.2-0.5,3.2,1.3c1,1.7,0.8,2.4-0.7,3.3c-1.8,1.1-3.6,2.1-5.5,3.1c-2.8,1.5-5.3,0.8-6.9-2c-2.6-4.6-4.2-9.5-4.7-14.8
			c0-0.4-0.2-0.9-0.3-1.3C-143.6,100.4-143.6,98.5-143.6,96.6z"/>
		<path class="st1" d="M-104.3,105.6c-2.6-0.2-4.8-1.7-5.7-4.2c-0.8-2.4,0-5.1,2.1-6.7c2.1-1.6,4.8-1.6,7-0.1c0.9,0.5,1.9,0.9,2.9,1
			c6,0.7,12.1,1.2,18.1,1.8c1.3,0.1,2.4,0.5,2.5,2.1c0.1,1.3-0.7,2.1-2.5,2.3c-5.4,0.5-10.8,1-16.2,1.4c-2,0.2-3.9,0.1-5.6,1.5
			C-102.3,105.3-103.4,105.4-104.3,105.6z"/>
		<path class="st1" d="M-104.3,117.7c2.9,0,5.7,0,8.6,0c2.3,0,3.3,1.1,3.4,3.4c0.1,4.3-0.1,5.7-5.4,5.6c-5-0.1-9.9,0-14.9,0
			c-2.7,0-3.7-1-3.7-3.7c-0.1-4.7,0.5-5.2,5.1-5.2C-108.9,117.7-106.6,117.7-104.3,117.7z"/>
	</g>
</g>
<g>
	<g id="_x39_-Phone_Book">
		<g>
			<path class="st1" d="M-152.1-10h10.5c0.9,0,1.7-0.7,1.7-1.7v-6.7c0-0.9-0.7-1.7-1.7-1.7h-10.5c-0.9,0-1.7,0.7-1.7,1.7v6.7
				C-153.8-10.7-153-10-152.1-10z"/>
			<path class="st1" d="M-152.1,5h10.5c0.9,0,1.7-0.7,1.7-1.7v-6.7c0-0.9-0.7-1.7-1.7-1.7h-10.5c-0.9,0-1.7,0.7-1.7,1.7v6.7
				C-153.8,4.2-153,5-152.1,5z"/>
			<path class="st1" d="M-139.9,18.3v-6.7c0-0.9-0.7-1.7-1.7-1.7h-10.5c-0.9,0-1.7,0.7-1.7,1.7v6.7c0,0.9,0.7,1.7,1.7,1.7h10.5
				C-140.6,20-139.9,19.2-139.9,18.3z"/>
			<path class="st1" d="M-87.3-38.3h-52c-4.6,0-8.3,3.7-8.3,8.3v6.7h6c2.8,0,5,2.2,5,5v6.7c0,1.7-0.9,3.3-2.2,4.2
				c1.3,0.9,2.2,2.4,2.2,4.2v6.7c0,1.7-0.9,3.3-2.2,4.2c1.3,0.9,2.2,2.4,2.2,4.2v6.7c0,2.8-2.2,5-5,5h-6V30c0,4.6,3.7,8.3,8.3,8.3
				h52c4.6,0,8.3-3.7,8.3-8.3V-30C-78.9-34.6-82.7-38.3-87.3-38.3z"/>
		</g>
	</g>
	<g>
		<path class="st0" d="M-119.2,8.7l-0.4-1.3h-6.1l-0.4,1.3c-0.3,1-1.2,1.6-2.3,1.6h0c-1.7,0-2.8-1.6-2.2-3.2l5.4-15
			c0.4-1.1,1.4-1.8,2.5-1.8h0c1.1,0,2.1,0.7,2.5,1.8l5.5,15c0.6,1.5-0.6,3.1-2.2,3.1h-0.1C-118,10.4-118.9,9.7-119.2,8.7z M-123-0.6
			l-1,3c-0.2,0.4,0.2,0.9,0.7,0.9h1.7c0.4,0,0.7-0.4,0.6-0.8l-1-3.1C-122.2-1-122.9-1-123-0.6z"/>
		<path class="st0" d="M-112.2,2.1L-112.2,2.1c0-1.2,1-2.2,2.2-2.2h4.9c1.2,0,2.2,1,2.2,2.2v0c0,1.2-1,2.2-2.2,2.2h-4.9
			C-111.2,4.3-112.2,3.3-112.2,2.1z"/>
		<path class="st0" d="M-100.8,7.4L-100.8,7.4c0-0.6,0.2-1.1,0.5-1.6l7.2-11h-5.1c-1.2,0-2.2-1-2.2-2.2v0c0-1.2,1-2.2,2.2-2.2h8.1
			c1.6,0,2.9,1.3,2.9,2.9v0c0,0.6-0.2,1.1-0.5,1.6l-7.2,11h5.5c1.2,0,2.2,1,2.2,2.2v0c0,1.2-1,2.2-2.2,2.2h-8.4
			C-99.5,10.4-100.8,9-100.8,7.4z"/>
	</g>
</g>
<g>
	<g>
		<g>
			<path class="st1" d="M131.6,117.5c-18.5,0.7-36.9,0.8-55.4-0.4c0.7-2.9,0.3-5.6-1.5-8.1c-1.8-2.4-4.3-3.7-7.3-3.8
				c-5.5-0.1-9.8,4.5-9.5,9.8c-0.5-0.2-1.1-0.3-1.6-0.5c-1.3-0.4-2.6-1-3.8-1.8c-1.1-0.7-1.5-1.7-1.6-2.9c-0.6-4.8,0.5-9.3,3.2-13.3
				c0.1-0.2,0.2-0.3,0.3-0.5c0.2-0.2,0.4-0.4,0.2-0.8c-0.1-0.3,0.1-0.6,0.3-0.9c0.3-0.2,0.6-0.5,0.8-0.7c-0.6-0.3-0.9-0.8-0.9-1.5
				c0-0.5,0.2-0.6,0.6-0.6c1.8,0.2,3.6,0,5.5-0.2c3-0.5,5.9-1.4,8.8-2.3c3.8-1.2,7.7-2.1,11.7-2.8c3.1-0.5,6.2-0.9,9.3-1
				c2.5-0.1,5.1-0.1,7.6-0.1c3.5,0.1,7,0.4,10.4,1c5.4,0.9,10.7,2.3,15.7,4.4c2.3,1,4.6,2,6.8,3.1c3.1,1.5,6.3,2.6,9.6,3.2
				c4.7,1,9.3,2.2,13.9,3.7c0.8,0.3,1.5,0.5,2.1,1.1c0.8,0.7,1.2,1.6,1.3,2.6c0.5,2.9,0.3,5.8-0.6,8.7c0,0.1-0.1,0.2-0.1,0.3
				c1,0.4,0.9,1.9,0,2.3c-0.5,0.3-1,0.4-1.5,0.5c-1.8,0.1-3.5,0.2-5.3,0.3c-0.4,0-0.9,0-1.3,0.1c0.7-4.4-0.7-8-4.6-10.2
				c-3.4-1.9-6.8-1.6-9.9,0.6c-1.7,1.1-2.8,2.7-3.4,4.7C131,113.6,131,115.5,131.6,117.5z M126.3,96.8c0-0.1,0-0.1,0-0.1
				c-0.3-0.9-0.5-1.8-0.8-2.7c-0.1-0.2-0.2-0.3-0.3-0.4c-1.4-0.9-2.9-1.7-4.4-2.4c-3.8-1.7-7.8-2.8-11.9-3.4
				c-3.2-0.5-6.4-0.6-9.6-0.4c-0.3,0-0.6,0-0.9,0.1c0,0.2,0.1,0.3,0.1,0.4c0.7,2.3,1.4,4.6,2,6.9c0.1,0.3,0.2,0.4,0.5,0.4
				c1.7,0.1,3.5,0.2,5.2,0.4c2.3,0.2,4.6,0.3,7,0.5c1.9,0.1,3.9,0.3,5.8,0.4c2.3,0.2,4.5,0.3,6.8,0.5
				C125.9,96.8,126.1,96.8,126.3,96.8z M95.6,94.7c0-2.5,0-4.9,0-7.4c-0.1,0-0.2,0-0.2,0c-1,0-2.1,0-3.1,0c-3.3,0.1-6.5,0.3-9.8,0.9
				c-2.3,0.4-4.6,1-6.7,1.9c-0.6,0.3-1.2,0.6-1.8,0.9c0.5,0.9,0.9,1.8,1.3,2.6c0,0.1,0.2,0.1,0.3,0.1c2.3,0.1,4.7,0.2,7,0.3
				c3.6,0.2,7.2,0.3,10.8,0.5C94.1,94.7,94.9,94.7,95.6,94.7z M55.7,95.7c3,0,5.9,0,8.9,0c-0.1-0.1-0.2-0.2-0.2-0.3
				c-0.5-0.6-1.2-1.1-1.9-1.4c-1.6-0.6-3.2-0.7-4.9-0.6c-0.1,0-0.2,0.1-0.3,0.2c-0.5,0.6-0.9,1.2-1.3,1.7
				C55.9,95.4,55.8,95.5,55.7,95.7z M146.6,99.8C146.6,99.8,146.6,99.8,146.6,99.8c0,0.1,0.1,0.2,0.1,0.2c0.6,0.5,1.2,1.1,1.9,1.6
				c0.1,0.1,0.3,0.2,0.4,0.2c0.7,0.2,1.4,0.3,2.1,0.4c1.5,0.4,2.9,0.7,4.3,1.4c0.2,0.1,0.4,0.2,0.7,0.3c0.1,0,0.2,0,0.4,0
				c0-0.1,0-0.3,0-0.4c-0.4-0.7-0.9-1.3-1.4-1.7c-0.2-0.2-0.5-0.3-0.8-0.4c-2-0.8-4.1-1.2-6.2-1.5C147.5,99.9,147.1,99.8,146.6,99.8
				z"/>
			<path class="st1" d="M74.7,114.6c0,4.2-3.5,7.6-7.7,7.5c-3.8-0.1-7.3-3.2-7.3-7.5c0-4.1,3.4-7.5,7.5-7.5
				C71.4,107.1,74.7,110.4,74.7,114.6z M62.4,114.6c0,2.6,2.1,4.8,4.7,4.9c2.7,0,4.9-2.1,4.9-4.8c0-2.7-2.1-4.9-4.8-4.9
				C64.6,109.8,62.4,111.9,62.4,114.6z"/>
			<path class="st0" d="M126.3,96.8c-0.2,0-0.4,0-0.5,0c-2.3-0.2-4.5-0.3-6.8-0.5c-1.9-0.1-3.9-0.3-5.8-0.4c-2.3-0.2-4.6-0.3-7-0.5
				c-1.7-0.1-3.5-0.3-5.2-0.4c-0.3,0-0.4-0.1-0.5-0.4c-0.7-2.3-1.4-4.6-2-6.9c0-0.1-0.1-0.3-0.1-0.4c0.3,0,0.6-0.1,0.9-0.1
				c3.2-0.2,6.4,0,9.6,0.4c4.1,0.6,8.1,1.7,11.9,3.4c1.5,0.7,3,1.5,4.4,2.4c0.1,0.1,0.3,0.3,0.3,0.4c0.3,0.9,0.6,1.8,0.8,2.7
				C126.3,96.7,126.3,96.7,126.3,96.8z"/>
			<path class="st0" d="M95.6,94.7c-0.8,0-1.5-0.1-2.2-0.1c-3.6-0.2-7.2-0.3-10.8-0.5c-2.3-0.1-4.7-0.2-7-0.3c-0.1,0-0.2,0-0.3-0.1
				c-0.4-0.8-0.9-1.7-1.3-2.6c0.6-0.3,1.2-0.6,1.8-0.9c2.1-1,4.4-1.5,6.7-1.9c3.2-0.6,6.5-0.8,9.8-0.9c1,0,2.1,0,3.1,0
				c0.1,0,0.2,0,0.2,0C95.6,89.8,95.6,92.2,95.6,94.7z"/>
			<path class="st0" d="M55.7,95.7c0.1-0.1,0.2-0.2,0.3-0.3c0.4-0.6,0.9-1.2,1.3-1.7c0.1-0.1,0.2-0.2,0.3-0.2c1.7-0.1,3.3,0,4.9,0.6
				c0.8,0.3,1.4,0.7,1.9,1.4c0.1,0.1,0.1,0.2,0.2,0.3C61.6,95.7,58.7,95.7,55.7,95.7z"/>
			<path class="st0" d="M146.6,99.8c0.4,0.1,0.9,0.1,1.3,0.2c2.1,0.3,4.2,0.7,6.2,1.5c0.3,0.1,0.5,0.3,0.8,0.4
				c0.6,0.5,1.1,1.1,1.4,1.7c0.1,0.1,0,0.2,0,0.4c-0.1,0-0.3,0-0.4,0c-0.2-0.1-0.5-0.2-0.7-0.3c-1.4-0.7-2.8-1-4.3-1.4
				c-0.7-0.2-1.4-0.3-2.1-0.4c-0.2,0-0.3-0.1-0.4-0.2c-0.6-0.5-1.2-1.1-1.9-1.6C146.7,99.9,146.6,99.9,146.6,99.8
				C146.6,99.8,146.6,99.8,146.6,99.8z"/>
			<path class="st0" d="M62.4,114.6c0-2.7,2.2-4.8,4.8-4.8c2.7,0,4.8,2.2,4.8,4.9c0,2.7-2.3,4.8-4.9,4.8
				C64.5,119.4,62.4,117.2,62.4,114.6z"/>
			<path class="st1" d="M147.9,114.6c0,4.1-3.4,7.4-7.6,7.3c-3.7-0.1-7.2-3.1-7.2-7.4c0-4,3.3-7.3,7.4-7.3
				C144.6,107.2,147.9,110.5,147.9,114.6z M135.8,114.6c0,2.6,2.1,4.7,4.6,4.8c2.6,0,4.8-2.1,4.8-4.7c0-2.7-2.1-4.8-4.7-4.8
				C137.9,109.9,135.8,112,135.8,114.6z"/>
			<path class="st0" d="M135.8,114.6c0-2.6,2.1-4.7,4.7-4.7c2.6,0,4.7,2.1,4.7,4.8c0,2.6-2.2,4.7-4.8,4.7
				C137.9,119.3,135.8,117.2,135.8,114.6z"/>
		</g>
	</g>
	<g>
		<path class="st0" d="M55.9,106c-0.3,0.1-0.5,0.1-0.8,0h0c-10.5-3.4-17.4-13-17.4-24.1V69.7c0-1.4,0.9-2.6,2.2-2.9l14.2-4.1
			c0.9-0.3,1.9-0.3,2.8,0l14.2,4.1c1.3,0.4,2.2,1.6,2.2,2.9v12.2C73.3,93,66.3,102.6,55.9,106L55.9,106z"/>
		<g>
			<path class="st1" d="M55.8,100.2c-0.2,0.1-0.4,0.1-0.6,0h0c-7.7-2.5-12.8-9.5-12.8-17.6v-10c0-0.4,0.2-0.7,0.6-0.8l11.8-3.4
				c0.4-0.1,0.8-0.1,1.2,0l11.8,3.4c0.4,0.1,0.6,0.4,0.6,0.8v10C68.5,90.6,63.4,97.7,55.8,100.2L55.8,100.2z M45.8,74.1
				c-0.3,0.1-0.6,0.4-0.6,0.7v7.9c0,6.5,4,12.2,10.1,14.4c0.2,0.1,0.3,0.1,0.5,0c6-2.2,10-7.9,10-14.4v-7.9c0-0.3-0.2-0.6-0.6-0.7
				l-9.6-2.8c-0.1,0-0.3,0-0.4,0L45.8,74.1z"/>
		</g>
	</g>
</g>
</svg>
