<?xml version="1.0" encoding="utf-8"?>
<!-- Generator: Adobe Illustrator 27.0.0, SVG Export Plug-In . SVG Version: 6.00 Build 0)  -->
<svg version="1.1" id="Capa_1" xmlns="http://www.w3.org/2000/svg" xmlns:xlink="http://www.w3.org/1999/xlink" x="0px" y="0px"
	 viewBox="0 0 200 200" style="enable-background:new 0 0 200 200;" xml:space="preserve">
<style type="text/css">
	.st0{fill:#13314E;}
	.st1{fill:#FFFFFF;}
</style>
<circle class="st0" cx="100" cy="100" r="95"/>
<g>
	<g>
		<path class="st1" d="M60.8,103.1c0.5-2.6,0.9-5.2,1.6-7.8c5-18,22.5-30,41.1-28.3c18.8,1.7,33.8,16.5,35.6,35.3
			c0.8,8.1-0.8,15.6-4.7,22.7c-1.5,2.8-4,3.6-6.9,2c-1.9-1-3.8-2.1-5.6-3.2c-1.5-0.9-1.6-1.6-0.6-3.3c1-1.7,1.6-2,3.2-1.2
			c0.7,0.3,1.3,0.7,2.2,1.2c4.6-8.9,4.8-17.9,0.9-27.2c-2.1,1.4-4.2,2.5-5.5-0.8c-1-2.6,1.5-2.7,2.5-3.8c-2.7-6-15-13.1-21.8-12.5
			c0,1.1,0,2.3,0,3.5c-0.1,1.6-0.6,2-2.7,2c-2,0-2.4-0.4-2.5-2c0-1.1,0-2.1-0.1-3.2c0-0.1-0.1-0.2-0.2-0.5
			c-9.1,0.9-16.3,5.2-21.9,12.7c2.1,1.2,4.3,2.3,2,5.2c-1.8,2.2-3,0-4.5-0.3c-4,6.5-4.2,19.1,0.8,26.9c0.6-0.4,1.3-0.7,2-1.1
			c1.5-0.8,2.2-0.5,3.2,1.3c1,1.7,0.8,2.4-0.7,3.3c-1.8,1.1-3.6,2.1-5.5,3.1c-2.8,1.5-5.3,0.8-6.9-2c-2.6-4.6-4.2-9.5-4.7-14.8
			c0-0.4-0.2-0.9-0.3-1.3C60.8,107,60.8,105,60.8,103.1z"/>
		<path class="st1" d="M100.1,112.2c-2.6-0.2-4.8-1.7-5.7-4.2c-0.8-2.4,0-5.1,2.1-6.7c2.1-1.6,4.8-1.6,7-0.1c0.9,0.5,1.9,0.9,2.9,1
			c6,0.7,12.1,1.2,18.1,1.8c1.3,0.1,2.4,0.5,2.5,2.1c0.1,1.3-0.7,2.1-2.5,2.3c-5.4,0.5-10.8,1-16.2,1.4c-2,0.2-3.9,0.1-5.6,1.5
			C102.1,111.8,101,111.9,100.1,112.2z"/>
		<path class="st1" d="M100,124.2c2.9,0,5.7,0,8.6,0c2.3,0,3.3,1.1,3.4,3.4c0.1,4.3-0.1,5.7-5.4,5.6c-5-0.1-9.9,0-14.9,0
			c-2.7,0-3.7-1-3.7-3.7c-0.1-4.7,0.5-5.2,5.1-5.2C95.4,124.2,97.7,124.2,100,124.2z"/>
	</g>
</g>
</svg>
